<svg width="1011" height="866" viewBox="0 0 1011 866" fill="none" xmlns="http://www.w3.org/2000/svg">
<path d="M189.054 54.9459C200.795 54.9459 210.312 45.1027 210.312 32.9605C210.312 20.8183 200.795 10.9752 189.054 10.9752C177.313 10.9752 167.796 20.8183 167.796 32.9605C167.796 45.1027 177.313 54.9459 189.054 54.9459Z" fill="#F1F1F1"/>
<path d="M287.021 94.5085C294.428 94.5085 300.431 88.2992 300.431 80.6397C300.431 72.9802 294.428 66.7709 287.021 66.7709C279.615 66.7709 273.611 72.9802 273.611 80.6397C273.611 88.2992 279.615 94.5085 287.021 94.5085Z" fill="#F1F1F1"/>
<path d="M377.785 132.264C383.075 132.264 387.363 127.829 387.363 122.359C387.363 116.889 383.075 112.454 377.785 112.454C372.496 112.454 368.208 116.889 368.208 122.359C368.208 127.829 372.496 132.264 377.785 132.264Z" fill="#F1F1F1"/>
<path d="M828.315 54.9459C840.056 54.9459 849.573 45.1027 849.573 32.9605C849.573 20.8183 840.056 10.9752 828.315 10.9752C816.574 10.9752 807.057 20.8183 807.057 32.9605C807.057 45.1027 816.574 54.9459 828.315 54.9459Z" fill="#F1F1F1"/>
<path d="M730.348 94.5085C737.754 94.5085 743.758 88.2992 743.758 80.6397C743.758 72.9802 737.754 66.7709 730.348 66.7709C722.941 66.7709 716.937 72.9802 716.937 80.6397C716.937 88.2992 722.941 94.5085 730.348 94.5085Z" fill="#F1F1F1"/>
<path d="M639.584 132.264C644.873 132.264 649.161 127.829 649.161 122.359C649.161 116.889 644.873 112.454 639.584 112.454C634.294 112.454 630.006 116.889 630.006 122.359C630.006 127.829 634.294 132.264 639.584 132.264Z" fill="#F1F1F1"/>
<path d="M518.466 792.388C581.325 792.388 632.281 786.384 632.281 778.978C632.281 771.572 581.325 765.568 518.466 765.568C455.608 765.568 404.651 771.572 404.651 778.978C404.651 786.384 455.608 792.388 518.466 792.388Z" fill="#F1F1F1"/>
<path d="M1009.83 2.96576L632.197 160.687V698.94L1009.83 864.171V2.96576Z" fill="#3F3D56" stroke="#3F3D56" stroke-width="2" stroke-miterlimit="10"/>
<path d="M663.667 583.779L934.786 648.87" stroke="white" stroke-width="2" stroke-miterlimit="10"/>
<path d="M663.667 541.219L934.786 583.779" stroke="white" stroke-width="2" stroke-miterlimit="10"/>
<path d="M900.897 343.347V408.438L683.032 393.417V343.347H900.897Z" fill="#D0CDE1"/>
<path opacity="0.2" d="M900.897 343.347V408.438L683.032 393.417V390.913L896.054 403.431V343.347H900.897Z" fill="black"/>
<path d="M1.17197 2.96576L378.802 160.687V698.94L1.17197 864.171V2.96576Z" fill="#3F3D56" stroke="#3F3D56" stroke-width="2" stroke-miterlimit="10"/>
<path d="M347.333 583.779L76.2139 648.87" stroke="white" stroke-width="2" stroke-miterlimit="10"/>
<path d="M347.333 541.219L76.2139 583.779" stroke="white" stroke-width="2" stroke-miterlimit="10"/>
<path d="M347.333 496.156L76.2139 526.198" stroke="white" stroke-width="2" stroke-miterlimit="10"/>
<path d="M110.104 343.347V408.438L327.968 393.417V343.347H110.104Z" fill="#5E81CC"/>
<path opacity="0.2" d="M110.104 343.347V408.438L327.968 393.417V390.913L114.945 403.431V343.347H110.104Z" fill="black"/>
<path d="M413.986 204.266L603.383 206.675" stroke="#3F3D56" stroke-width="2" stroke-miterlimit="10"/>
<path d="M421.634 214.278L423.255 212.523L414.886 204.28L423.448 196.249L421.871 194.454L411.445 204.237L421.634 214.278Z" fill="#3F3D56"/>
<path d="M595.499 216.49L593.922 214.694L602.483 206.667L594.115 198.42L595.735 196.666L605.925 206.71L595.499 216.49Z" fill="#3F3D56"/>
<path d="M508.684 221.86C517.437 221.86 524.532 214.522 524.532 205.471C524.532 196.419 517.437 189.081 508.684 189.081C499.932 189.081 492.837 196.419 492.837 205.471C492.837 214.522 499.932 221.86 508.684 221.86Z" fill="#AAAAAA"/>
<path d="M542.27 411.827L497.607 413.164L491.595 348.99H542.27V411.827Z" fill="#2F2E41"/>
<path d="M494.932 494.233L478.798 629.702C478.798 629.702 464.814 677.898 463.739 701.345L459.436 735.212L478.798 740.422L499.235 645.334L527.201 559.363L523.974 658.359L517.52 739.119L536.882 743.027L548.714 640.123L561.621 564.573C561.621 564.573 571.302 499.443 556.243 492.931L494.932 494.233Z" fill="#2F2E41"/>
<path d="M477.957 726.834L475.784 758.563C475.784 758.563 499.044 774.707 491.581 777.836C484.118 780.966 473.902 776.94 471.813 776.228C469.606 775.477 465.487 774.28 462.37 773.393C460.927 772.997 459.628 772.055 458.664 770.708C457.699 769.361 457.119 767.678 457.009 765.905L457.004 765.788C456.816 761.885 464.153 727.955 464.153 727.955L477.957 726.834Z" fill="#2F2E41"/>
<path d="M533.315 728.033L535.145 758.042C535.145 758.042 561.612 769.727 554.79 774.458C547.967 779.191 537.307 777.599 535.145 777.383C531.157 776.984 521.235 776.586 521.235 776.586C521.235 776.586 519.4 778.473 518.595 774.725C517.79 770.978 519.669 737.496 519.669 737.496L533.315 728.033Z" fill="#2F2E41"/>
<path d="M518.151 384.975C529.319 384.975 538.372 373.832 538.372 360.085C538.372 346.339 529.319 335.196 518.151 335.196C506.983 335.196 497.93 346.339 497.93 360.085C497.93 373.832 506.983 384.975 518.151 384.975Z" fill="#FFB8B8"/>
<path d="M505.61 374.18L501.341 403.208L519.485 413.763L523.755 376.819L505.61 374.18Z" fill="#FFB8B8"/>
<path d="M503.777 509.839L526.684 529.365C526.684 529.365 536.502 559.304 544.138 554.097C551.774 548.89 535.411 522.856 535.411 522.856L516.867 500.727L503.777 509.839Z" fill="#FFB8B8"/>
<path d="M568.322 500.727L570.531 516.373C570.531 516.373 565.007 548.967 558.379 542.448C551.75 535.929 560.588 515.069 560.588 515.069L559.484 502.031L568.322 500.727Z" fill="#FFB8B8"/>
<path d="M517.584 405.658L515.404 395.21L502.326 387.374L497.967 393.904L483.799 399.128L500.147 503.606C500.147 503.606 555.728 507.524 556.818 497.076C557.908 486.628 545.92 457.897 545.92 457.897C545.92 457.897 549.189 443.531 548.099 435.696L543.74 404.352L526.303 397.822L522.321 392.049L518.674 399.128L517.584 405.658Z" fill="#6E6E6E"/>
<path d="M488.092 401.973L484.885 399.369C484.885 399.369 478.473 400.671 476.335 411.085C474.197 421.499 476.335 468.361 481.679 477.473C487.023 486.585 501.986 513.922 501.986 513.922L522.293 502.206L500.917 472.266L495.573 434.516L488.092 401.973Z" fill="#6E6E6E"/>
<path d="M534.474 406.782L543.029 404.167C543.029 404.167 548.375 406.782 550.513 415.931C552.652 425.082 564.413 470.832 563.344 474.753C562.275 478.675 572.968 504.818 572.968 504.818L557.998 506.125L549.444 478.675L540.89 451.225L534.474 406.782Z" fill="#6E6E6E"/>
<path d="M482.846 383.795C487.099 380.921 489.078 374.471 489.219 368.503C489.36 362.535 488.184 356.629 488.092 350.66C488.044 349.439 488.129 348.215 488.343 347.022C488.696 345.54 489.246 344.14 489.97 342.879C495.5 332.452 505.114 325.117 515.241 325.001C516.704 324.978 518.156 325.306 519.517 325.968C520.564 326.484 520.906 326.421 521.107 328.003C523.506 327.029 526.108 327.131 528.451 328.29C530.773 329.452 532.938 331.038 534.873 332.997C536.024 334.049 537.109 335.205 538.12 336.456C543.472 343.277 544.704 353.791 543.154 363.078C542.65 366.098 545.068 369.013 547.069 370.867C549.071 372.722 551.381 374.425 552.364 377.261C553.309 379.988 552.79 383.108 552.98 386.063C553.194 388.857 554.038 391.523 555.417 393.758C556.797 395.993 558.656 397.709 560.786 398.713C560.352 399.353 559.785 399.837 559.145 400.114C558.506 400.391 557.817 400.45 557.153 400.285C555.766 399.926 554.468 399.165 553.367 398.067C549.225 394.291 546.262 388.881 544.971 382.739C544.383 386.029 544.611 389.422 544.633 392.789C544.581 396.547 545.144 400.28 546.287 403.766C547.45 407.268 549.58 410.153 552.302 411.914C549.676 413.496 546.784 412.349 544.559 410.017C542.427 407.527 540.887 404.369 540.104 400.882C538.612 395.318 538.006 389.452 538.321 383.605C535.879 388.663 534.987 394.628 535.805 400.424C536.66 406.334 539.167 411.689 542.894 415.563C536.396 415.495 530.007 413.515 524.259 409.788C522.775 408.961 521.466 407.721 520.437 406.166C518.587 403.009 519.025 398.703 519.544 394.863C519.954 391.827 516.871 387.439 518.636 385.259C519.161 384.621 519.862 384.251 520.599 384.221C523.254 383.977 525.827 382.985 528.121 381.321C530.415 379.658 532.367 377.368 533.827 374.628C535.863 370.861 537.02 366.479 537.171 361.959C537.169 358.639 536.586 355.36 535.459 352.344C534.333 349.328 532.69 346.647 530.644 344.484C528.598 342.321 526.197 340.727 523.604 339.811C521.012 338.895 518.289 338.679 515.622 339.177C512.955 339.675 510.407 340.876 508.152 342.697C505.897 344.518 503.988 346.917 502.556 349.73C501.124 352.542 500.202 355.702 499.854 358.994C499.506 362.285 499.739 365.63 500.538 368.8C501.175 371.351 501.631 373.965 501.902 376.613C502.222 379.685 502.73 382.724 503.423 385.702C504.759 391.425 507.022 397.265 511.209 400.25C509.745 401.022 508.172 401.432 506.579 401.456C501.325 402.169 495.799 402.012 491.043 399.173C486.287 396.333 482.507 390.286 482.846 383.795Z" fill="#2F2E41"/>
<path d="M494.032 358.586C509.083 351.018 523.921 349.404 538.372 358.586V343.332C538.372 340.697 537.538 338.17 536.053 336.307C534.567 334.443 532.553 333.397 530.453 333.397H500.288C499.467 333.397 498.653 333.6 497.894 333.994C497.135 334.388 496.445 334.967 495.864 335.695C495.283 336.424 494.822 337.29 494.508 338.242C494.193 339.194 494.032 340.215 494.032 341.246V358.586Z" fill="#2F2E41"/>
<path d="M498.904 367.582C500.25 367.582 501.341 365.703 501.341 363.384C501.341 361.065 500.25 359.186 498.904 359.186C497.559 359.186 496.468 361.065 496.468 363.384C496.468 365.703 497.559 367.582 498.904 367.582Z" fill="#FFB8B8"/>
</svg>
