
<svg width="1601" height="1001" viewBox="0 0 1601 1001" fill="none" xmlns="http://www.w3.org/2000/svg">
<path id="Vector" d="M925.878 250.5C917.681 274.831 905.111 297 879.493 297C853.875 297 834.551 276.141 833.108 250.5C831.264 217.737 853.284 203.865 879.493 204.001C910.455 204.161 935.607 221.626 925.878 250.5Z" fill="#2F2E41"/>
<path id="Vector_2" d="M924 247H833V364H924V247Z" fill="#2F2E41"/>
<path id="Vector_3" d="M684.734 605H363.266L281 1001H767L684.734 605Z" fill="#F2F2F2"/>
<path id="Vector_4" d="M767 561.5C767 568.347 721.953 574.233 657.803 576.721C640.031 577.409 620.802 577.849 600.647 577.959C596.793 577.986 592.91 578 589 578C490.694 578 411 570.616 411 561.5C411 552.384 490.693 545 589 545C687.306 545 767 552.384 767 561.5Z" fill="#3F3D56"/>
<path id="Vector_5" d="M408.649 561.235L317.281 1000.39L320.027 1000.99L411.395 561.832L408.649 561.235Z" fill="#3F3D56"/>
<path id="Vector_6" d="M767.958 561.223L765.21 561.82L856.47 1001L859.218 1000.4L767.958 561.223Z" fill="#3F3D56"/>
<path id="Vector_7" d="M1084 998H0V1001H1084V998Z" fill="#2F2E41"/>
<g id="plant">
<path id="Vector_8" d="M178.522 1000L176.005 998.709C208.695 935.955 191.215 854.458 170.795 797.142C156.93 758.617 139.244 721.556 118 686.502L120.394 685C141.749 720.231 159.526 757.482 173.464 796.203C194.072 854.044 211.676 936.353 178.522 1000Z" fill="#2F2E41"/>
<path id="Vector_9" d="M202.181 685.254L183.965 785.168L186.726 785.673L204.942 685.759L202.181 685.254Z" fill="#2F2E41"/>
<path id="Vector_10" d="M81.0564 770.382L79 772.3L173.068 873.616L175.124 871.698L81.0564 770.382Z" fill="#2F2E41"/>
<path id="Vector_11" d="M250.167 881.674L202.453 947.826L204.729 949.475L252.443 883.323L250.167 881.674Z" fill="#2F2E41"/>
<path id="Vector_12" d="M211 659C218.732 659 225 652.732 225 645C225 637.268 218.732 631 211 631C203.268 631 197 637.268 197 645C197 652.732 203.268 659 211 659Z" fill="#6C63FF"/>
<path id="Vector_13" d="M57.5 767C65.5081 767 72 760.732 72 753C72 745.268 65.5081 739 57.5 739C49.4919 739 43 745.268 43 753C43 760.732 49.4919 767 57.5 767Z" fill="#3F3D56"/>
<path id="Vector_14" d="M119 781C126.732 781 133 774.732 133 767C133 759.268 126.732 753 119 753C111.268 753 105 759.268 105 767C105 774.732 111.268 781 119 781Z" fill="#3F3D56"/>
<path id="Vector_15" d="M91 836C98.732 836 105 829.732 105 822C105 814.268 98.732 808 91 808C83.268 808 77 814.268 77 822C77 829.732 83.268 836 91 836Z" fill="#6C63FF"/>
<path id="Vector_16" d="M267 871C274.732 871 281 864.732 281 857C281 849.268 274.732 843 267 843C259.268 843 253 849.268 253 857C253 864.732 259.268 871 267 871Z" fill="#3F3D56"/>
<path id="Vector_17" d="M220 887C227.732 887 234 880.732 234 873C234 865.268 227.732 859 220 859C212.268 859 206 865.268 206 873C206 880.732 212.268 887 220 887Z" fill="#3F3D56"/>
<path id="Vector_18" d="M253 932C260.732 932 267 925.732 267 918C267 910.268 260.732 904 253 904C245.268 904 239 910.268 239 918C239 925.732 245.268 932 253 932Z" fill="#3F3D56"/>
<path id="Vector_19" d="M105 676C112.732 676 119 669.732 119 662C119 654.268 112.732 648 105 648C97.268 648 91 654.268 91 662C91 669.732 97.268 676 105 676Z" fill="#3F3D56"/>
</g>
<path id="Vector_20" d="M925.974 334H933.82C933.82 334 953 358.56 944.282 391.891C935.564 425.222 942.538 431.362 942.538 431.362C942.538 431.362 953.888 467.456 941.683 521.839C929.478 576.221 953 591 953 591L931.205 547.143L919 431.362L925.974 334Z" fill="#6C63FF"/>
<path id="Vector_21" opacity="0.1" d="M925.974 334H933.82C933.82 334 953 358.56 944.282 391.891C935.564 425.222 942.538 431.362 942.538 431.362C942.538 431.362 953.888 467.457 941.683 521.839C929.478 576.221 953 591 953 591L931.205 547.143L919 431.362L925.974 334Z" fill="black"/>
<path id="Vector_22" d="M899.538 291.145C899.538 291.145 892.769 319.478 896.154 319.478C899.538 319.478 911.385 334.531 911.385 334.531L919 363.75L913.077 385L892.769 380.573L867.385 351.354L859.769 343.385L853 317.707C853 317.707 861.462 307.082 855.538 298.228C849.615 289.374 899.538 291.145 899.538 291.145Z" fill="#FBBEBE"/>
<path id="Vector_23" opacity="0.1" d="M899.538 291.145C899.538 291.145 892.769 319.478 896.154 319.478C899.538 319.478 911.385 334.531 911.385 334.531L919 363.75L913.077 385L892.769 380.573L867.385 351.354L859.769 343.385L853 317.707C853 317.707 861.462 307.082 855.538 298.228C849.615 289.374 899.538 291.145 899.538 291.145Z" fill="black"/>
<path id="Vector_24" d="M694 370.003L674.552 338.245C674.552 338.245 653.56 291.892 638.532 308.653C623.504 325.414 661.293 359.417 661.293 359.417L680.74 385L694 370.003Z" fill="#FBBEBE"/>
<path id="Vector_25" d="M943 643.799L929.323 745.82C929.323 745.82 931.032 753.668 913.935 782.443C896.839 811.218 850.677 874 850.677 874L837 847.841C837 847.841 853.242 765.003 881.452 747.564L878.032 622L943 643.799Z" fill="#FBBEBE"/>
<path id="Vector_26" opacity="0.1" d="M943 643.799L929.323 745.82C929.323 745.82 931.032 753.668 913.935 782.443C896.839 811.218 850.677 874 850.677 874L837 847.841C837 847.841 853.242 765.003 881.452 747.564L878.032 622L943 643.799Z" fill="black"/>
<path id="Vector_27" d="M836.616 837L855 873.907C855 873.907 839.959 918.723 845.808 923.117C851.657 927.51 859.178 967.054 843.301 962.66C827.425 958.266 814.89 940.691 814.89 938.055C814.89 935.419 824.082 898.512 819.068 889.724C814.055 880.937 810.712 878.301 810.712 878.301L798.178 900.269L794 897.633L814.89 860.726C814.89 860.726 817.397 853.696 827.425 849.302L836.616 837Z" fill="#2F2E41"/>
<path id="Vector_28" opacity="0.1" d="M836.616 837L855 873.907C855 873.907 839.959 918.723 845.808 923.117C851.657 927.51 859.178 967.054 843.301 962.66C827.425 958.266 814.89 940.691 814.89 938.055C814.89 935.419 824.082 898.512 819.068 889.724C814.055 880.937 810.712 878.301 810.712 878.301L798.178 900.269L794 897.633L814.89 860.726C814.89 860.726 817.397 853.696 827.425 849.302L836.616 837Z" fill="black"/>
<path id="Vector_29" d="M878.47 629.318C878.47 629.318 885.182 725.671 870.491 750.936V876.386L850.615 879C850.615 879 816.913 811.047 831.604 745.708C846.295 680.369 810 622 810 622L878.47 629.318Z" fill="#FBBEBE"/>
<path id="Vector_30" d="M872 313C891.33 313 907 296.658 907 276.5C907 256.342 891.33 240 872 240C852.67 240 837 256.342 837 276.5C837 296.658 852.67 313 872 313Z" fill="#FBBEBE"/>
<path id="Vector_31" d="M909.205 373.508L873.229 327.031L852.671 313L844.105 324.4L820.121 331.415C820.121 331.415 804.703 334.923 788.428 354.215C772.153 373.508 743.029 384.908 743.029 384.908L719.045 380.523C719.045 380.523 690.778 367.369 690.778 363.862C690.778 360.354 665.938 387.538 671.934 398.062C677.93 408.585 690.778 421.738 697.631 428.754C704.484 435.769 707.053 455.938 749.025 449.8C790.997 443.662 806.416 422.615 806.416 422.615C806.416 422.615 814.125 462.954 836.396 470.846C858.667 478.738 931.476 484 931.476 484L946.894 431.385C946.894 431.385 964.025 408.585 940.898 375.262C940.898 375.262 940.454 356.625 937.967 344.224C937 339.4 935.724 335.52 934.045 334.046C928.049 328.785 896.356 320.015 896.356 320.015C896.356 320.015 901.495 337.554 904.065 338.431C906.635 339.308 912.631 369.123 909.205 373.508Z" fill="#6C63FF"/>
<path id="Vector_32" d="M794.561 634.238C837.626 631.173 862.699 638.398 873.885 643.906C875.964 644.869 877.922 646.087 879.717 647.531C880.538 648.24 880.931 648.792 880.931 649.125C880.931 651.752 939.937 657.006 961.316 651.752C982.695 646.498 946.778 533.534 937.372 523.901C927.965 514.269 933.036 479.013 933.036 479.013C933.036 479.013 914.282 474.863 909.151 476.614C904.021 478.366 877.511 473.987 868.104 468.733C858.697 463.479 846.725 466.982 839.029 465.23C835.591 464.451 833.855 465.764 832.991 467.463C831.647 470.012 829.617 472.112 827.142 473.514C808.987 484.224 794.415 558.272 783.444 599.211C771.471 643.871 794.561 634.238 794.561 634.238Z" fill="#2F2E41"/>
<path id="Vector_33" d="M873.232 869L876.643 888.28C876.643 888.28 894.548 914.571 889.433 936.48C889.433 936.48 893.696 965.4 909.044 973.288C924.392 981.175 911.602 999.579 897.106 998.702C882.611 997.826 868.969 999.578 867.263 995.197C865.558 990.815 855.326 947.873 855.326 947.873L852.527 998.124L844 999L846.799 940.862C846.799 940.862 839.978 927.716 849.357 905.807L846.99 872.177C846.99 872.177 870.674 877.764 873.232 869Z" fill="#2F2E41"/>
<path id="Vector_34" opacity="0.1" d="M873 643.408C875.284 644.363 877.434 645.569 879.405 647C879.902 638.8 882.776 589.211 879.329 590.01L873 643.408Z" fill="black"/>
<path id="Vector_35" d="M857.971 225.544C857.971 225.544 857.576 223.274 842.131 229.255C826.686 235.236 817.427 279.371 825.15 305.288C828.262 315.732 825.73 323.263 821.598 328.532C806.092 348.304 812.196 378.001 834.782 388.168C835.42 388.455 836.07 388.739 836.734 389.019L846.387 395C846.387 395 834.081 378.28 840.239 356.892C845.587 338.669 846.248 319.322 842.156 300.756C841.449 297.623 840.647 294.395 839.735 291.1C832.012 263.19 835.768 266.413 862.798 238.503C862.798 238.503 878.243 250.464 891.758 256.445C905.272 262.426 916.856 268.407 907.203 288.343C897.55 308.279 874.382 326.221 889.827 352.138C905.272 378.054 907.203 368.086 905.272 378.054L903.342 388.022L914.926 376.061L907.203 392.01C907.203 392.01 932.302 392.01 940.024 372.074L943.886 376.061C943.886 376.061 959.331 348.15 930.371 322.234C930.371 322.234 920.718 316.253 934.232 296.317C947.747 276.381 937.367 233.519 919.991 225.544C902.615 217.57 857.971 225.544 857.971 225.544Z" fill="#2F2E41"/>
<path id="Vector_36" d="M879.5 214C889.717 214 898 205.493 898 195C898 184.507 889.717 176 879.5 176C869.283 176 861 184.507 861 195C861 205.493 869.283 214 879.5 214Z" fill="#2F2E41"/>
<path id="Vector_37" d="M857.455 185.5C857.455 180.914 859.045 176.491 861.918 173.09C864.79 169.689 868.74 167.552 873 167.093C872.432 167.033 871.856 167 871.273 167C866.692 167 862.298 168.949 859.059 172.419C855.82 175.888 854 180.593 854 185.5C854 190.407 855.82 195.112 859.059 198.581C862.298 202.051 866.692 204 871.273 204C871.856 204 872.432 203.967 873 203.907C868.74 203.448 864.79 201.311 861.918 197.91C859.045 194.509 857.455 190.086 857.455 185.5V185.5Z" fill="#2F2E41"/>
<path id="Vector_38" d="M997 616C1005.84 616 1013 607.717 1013 597.5C1013 587.283 1005.84 579 997 579C988.163 579 981 587.283 981 597.5C981 607.717 988.163 616 997 616Z" fill="#F1F1F1"/>
<path id="Vector_39" d="M461 313C472.598 313 482 303.598 482 292C482 280.402 472.598 271 461 271C449.402 271 440 280.402 440 292C440 303.598 449.402 313 461 313Z" fill="#F1F1F1"/>
<path id="Vector_40" d="M260 562C271.598 562 281 552.598 281 541C281 529.402 271.598 520 260 520C248.402 520 239 529.402 239 541C239 552.598 248.402 562 260 562Z" fill="#F1F1F1"/>
<g id="pinterest">
<path id="Vector_41" d="M649.17 476C641.324 475.996 633.717 478.721 627.626 483.716C621.536 488.711 617.333 495.672 615.725 503.429C614.117 511.186 615.202 519.266 618.796 526.31C622.391 533.354 628.277 538.933 635.465 542.109C635.321 539.46 635.521 536.804 636.059 534.207L640.455 515.4C639.71 513.682 639.337 511.823 639.36 509.948C639.36 504.827 642.286 501.018 645.947 501.018C649.076 501.018 650.546 503.373 650.546 506.186C650.546 509.347 648.544 514.088 647.527 518.435C647.322 519.245 647.308 520.093 647.488 520.909C647.668 521.726 648.035 522.489 648.561 523.135C649.086 523.781 649.755 524.294 650.513 524.63C651.272 524.967 652.098 525.118 652.924 525.072C659.386 525.072 663.751 516.68 663.751 506.724C663.751 499.169 658.697 493.511 649.545 493.511C647.351 493.423 645.163 493.787 643.113 494.581C641.063 495.374 639.195 496.581 637.621 498.128C636.048 499.674 634.802 501.528 633.961 503.577C633.12 505.625 632.7 507.825 632.727 510.042C632.625 512.501 633.427 514.911 634.98 516.807C635.263 517.023 635.466 517.329 635.554 517.677C635.642 518.024 635.611 518.392 635.465 518.719C635.293 519.351 634.933 520.884 634.761 521.501C634.733 521.687 634.662 521.865 634.552 522.018C634.442 522.171 634.297 522.294 634.129 522.378C633.962 522.462 633.776 522.504 633.589 522.5C633.402 522.495 633.219 522.445 633.055 522.354C628.284 520.394 626.062 515.116 626.062 509.173C626.062 499.375 634.244 487.632 650.468 487.632C663.5 487.632 672.089 497.115 672.089 507.387C672.089 520.932 664.627 531.094 653.66 531.094C652.025 531.136 650.406 530.765 648.95 530.014C647.494 529.263 646.246 528.157 645.321 526.795C645.321 526.795 643.334 534.697 642.912 536.278C642.123 538.898 640.963 541.389 639.47 543.674C644.154 545.025 649.07 545.348 653.888 544.622C658.706 543.896 663.315 542.137 667.404 539.463C671.494 536.789 674.97 533.262 677.599 529.119C680.228 524.976 681.949 520.313 682.648 515.443C683.346 510.573 683.004 505.608 681.646 500.882C680.288 496.156 677.945 491.778 674.774 488.042C671.604 484.306 667.678 481.299 663.262 479.222C658.846 477.145 654.041 476.046 649.17 476V476Z" fill="#BE000F"/>
</g>
<g id="linkedIn">
<path id="Vector_42" d="M642.404 271.007H583.988C583.235 270.969 582.482 271.081 581.773 271.336C581.064 271.591 580.412 271.983 579.855 272.491C579.299 272.999 578.848 273.612 578.53 274.295C578.211 274.978 578.031 275.717 578 276.47V335.013C578.043 336.587 578.687 338.086 579.801 339.199C580.915 340.313 582.413 340.957 583.988 341H642.385C643.919 340.937 645.366 340.274 646.416 339.154C647.466 338.034 648.034 336.547 647.998 335.013V276.508C648.017 275.772 647.884 275.041 647.608 274.359C647.333 273.677 646.92 273.059 646.395 272.543C645.87 272.027 645.246 271.625 644.559 271.361C643.872 271.097 643.139 270.976 642.404 271.007ZM599.742 329.4H589.713V298.211H599.742V329.4ZM595.065 293.477C594.004 293.455 592.973 293.121 592.102 292.515C591.231 291.91 590.557 291.061 590.167 290.075C589.776 289.088 589.685 288.008 589.906 286.971C590.126 285.933 590.648 284.983 591.406 284.241C592.164 283.499 593.124 282.996 594.166 282.797C595.208 282.598 596.286 282.712 597.264 283.122C598.242 283.533 599.077 284.224 599.665 285.107C600.252 285.991 600.565 287.028 600.566 288.089C600.601 288.825 600.478 289.559 600.205 290.243C599.932 290.927 599.515 291.544 598.983 292.053C598.451 292.562 597.816 292.951 597.12 293.194C596.425 293.436 595.686 293.527 594.952 293.459L595.065 293.477ZM636.379 329.4H626.312V312.337C626.312 308.258 624.853 305.47 621.223 305.47C620.085 305.483 618.979 305.85 618.06 306.521C617.141 307.191 616.454 308.132 616.096 309.212C615.823 309.999 615.702 310.831 615.74 311.663V329.437H605.711V298.211H615.74V302.552C616.655 300.971 617.978 299.665 619.572 298.773C621.166 297.881 622.971 297.434 624.797 297.481C631.364 297.481 636.341 301.822 636.341 311.177L636.379 329.4Z" fill="#007BB6"/>
</g>
<g id="google">
<path id="Vector_43" d="M485.55 448.116L485.3 446.787H459.934V459.098H474.612C473.099 467.658 466.783 471.215 460.998 471.215C456.911 471.38 452.934 469.646 449.927 466.388C446.967 462.838 445.292 458.078 445.255 453.107C445.218 448.136 446.821 443.342 449.728 439.732C451.211 438.091 452.96 436.816 454.87 435.984C456.78 435.151 458.813 434.778 460.848 434.886C464.299 434.821 467.649 436.255 470.257 438.911L478.036 429.824C473.232 424.8 467.029 422.019 460.599 422.007C457.102 421.918 453.626 422.657 450.378 424.182C447.13 425.707 444.176 427.986 441.694 430.882C439.211 433.779 437.251 437.234 435.929 441.041C434.608 444.848 433.953 448.929 434.003 453.04C433.984 461.026 436.565 468.717 441.217 474.537C443.834 477.603 446.948 480.02 450.374 481.645C453.801 483.27 457.47 484.069 461.164 483.995C464.496 484.03 467.798 483.266 470.87 481.75C473.943 480.235 476.72 478 479.034 475.182C483.58 469.315 486.037 461.62 485.899 453.685C485.913 451.828 485.802 449.972 485.566 448.135L485.55 448.116ZM516.95 446.806H507.708V435.96H501.059V446.806H491.817V454.623H501.059V465.469H507.708V454.623H517L516.95 446.806Z" fill="#DD4B39"/>
</g>
<g id="facebook">
<path id="Vector_44" d="M430.182 293H367.874C366.847 293 365.861 293.414 365.135 294.15C364.408 294.887 364 295.886 364 296.928V360.072C364 361.114 364.408 362.113 365.135 362.85C365.861 363.586 366.847 364 367.874 364H398.981V335.9H390.615V325.54H398.981V317.951C398.981 308.767 405.251 303.777 413.337 303.777C417.211 303.777 421.366 304.081 422.321 304.214V313.7H415.882C411.503 313.7 410.66 315.825 410.66 318.918V325.521H421.123L419.757 335.881H410.66V363.981H430.144C431.169 363.976 432.149 363.56 432.872 362.824C433.594 362.088 434 361.092 434 360.053V296.928C434 295.896 433.6 294.905 432.885 294.17C432.171 293.435 431.2 293.015 430.182 293V293Z" fill="#3B5998"/>
</g>
<g id="twitter">
<path id="Vector_45" d="M498 84.7079C494.558 86.0341 490.911 86.9131 487.175 87.3168C491.11 85.2494 494.057 82.0206 495.479 78.2203C491.769 80.1348 487.708 81.482 483.474 82.2033C480.887 79.7973 477.528 78.1238 473.832 77.4005C470.136 76.6772 466.276 76.9377 462.753 78.1481C459.23 79.3584 456.207 81.4626 454.079 84.1867C451.951 86.9108 450.815 90.1287 450.819 93.4217C450.816 94.6857 450.978 95.9459 451.3 97.1785C443.79 96.8539 436.442 95.1575 429.737 92.1996C423.032 89.2418 417.118 85.089 412.383 80.0118C409.978 83.6309 409.248 87.91 410.34 91.9802C411.433 96.0503 414.266 99.6065 418.265 101.927C415.255 101.874 412.306 101.175 409.682 99.8918V100.083C409.678 103.875 411.185 107.551 413.946 110.487C416.707 113.423 420.552 115.438 424.828 116.189C423.21 116.566 421.542 116.759 419.866 116.763C418.671 116.762 417.478 116.663 416.304 116.467C417.511 119.729 419.861 122.582 423.025 124.625C426.19 126.668 430.011 127.799 433.952 127.86C427.258 132.406 418.996 134.857 410.502 134.817C408.997 134.815 407.494 134.733 406 134.573C414.595 139.438 424.636 142.019 434.893 142C469.648 142 488.656 116.972 488.656 95.2479C488.656 94.5348 488.656 93.8391 488.656 93.1434C492.318 90.8316 495.481 87.976 498 84.7079V84.7079Z" fill="#55ACEE"/>
</g>
<g id="instagram">
<path id="Vector_46" d="M665.757 147.451C669.4 147.465 672.889 148.897 675.464 151.434C678.038 153.971 679.488 157.407 679.497 160.993V188.059C679.494 189.834 679.136 191.591 678.443 193.229C677.75 194.867 676.736 196.355 675.458 197.608C674.192 198.873 672.681 199.876 671.015 200.559C669.349 201.242 667.562 201.59 665.757 201.583H638.243C634.603 201.57 631.116 200.14 628.543 197.607C625.969 195.074 624.517 191.642 624.503 188.059V160.993C624.512 157.407 625.962 153.971 628.536 151.434C631.111 148.897 634.6 147.465 638.243 147.451H665.757V147.451ZM665.757 142.035H638.243C633.14 142.048 628.251 144.051 624.645 147.604C621.039 151.157 619.009 155.971 619 160.993V188.059C619.014 193.078 621.046 197.888 624.651 201.437C628.257 204.986 633.143 206.986 638.243 207H665.757C670.857 206.986 675.743 204.986 679.349 201.437C682.954 197.888 684.986 193.078 685 188.059V160.993C685 155.965 682.974 151.142 679.367 147.581C675.76 144.021 670.866 142.014 665.757 142V142.035Z" fill="#E53C5F"/>
<path id="Vector_47" d="M669.819 160.143C668.993 160.143 668.184 159.904 667.497 159.457C666.809 159.009 666.274 158.373 665.957 157.63C665.641 156.886 665.558 156.067 665.719 155.277C665.881 154.487 666.279 153.762 666.863 153.192C667.448 152.623 668.193 152.235 669.004 152.078C669.815 151.921 670.655 152.002 671.419 152.31C672.183 152.618 672.836 153.14 673.295 153.809C673.755 154.479 674 155.266 674 156.071C674.002 156.607 673.896 157.137 673.687 157.632C673.477 158.127 673.169 158.577 672.781 158.956C672.392 159.334 671.93 159.634 671.422 159.838C670.914 160.041 670.369 160.145 669.819 160.143V160.143ZM651.722 162.857C653.928 162.857 656.084 163.494 657.917 164.688C659.751 165.882 661.18 167.579 662.023 169.563C662.866 171.548 663.086 173.732 662.654 175.839C662.223 177.945 661.159 179.88 659.598 181.398C658.038 182.915 656.05 183.948 653.886 184.365C651.722 184.782 649.48 184.564 647.443 183.74C645.407 182.916 643.667 181.521 642.444 179.734C641.221 177.946 640.57 175.845 640.574 173.697C640.579 170.82 641.755 168.063 643.845 166.031C645.936 163.999 648.768 162.857 651.722 162.857V162.857ZM651.722 157.429C648.414 157.429 645.18 158.384 642.43 160.174C639.68 161.965 637.536 164.509 636.271 167.486C635.006 170.463 634.676 173.738 635.323 176.898C635.969 180.057 637.564 182.959 639.904 185.236C642.244 187.513 645.226 189.063 648.471 189.689C651.716 190.316 655.078 189.991 658.134 188.755C661.189 187.52 663.799 185.43 665.634 182.749C667.47 180.069 668.447 176.919 668.444 173.697C668.444 171.559 668.011 169.442 667.171 167.467C666.33 165.492 665.098 163.698 663.545 162.187C661.992 160.676 660.148 159.478 658.12 158.662C656.091 157.845 653.917 157.426 651.722 157.429V157.429Z" fill="#E53C5F"/>
</g>
<g id="leftClouds">
<path id="Vector_48" opacity="0.1" d="M211.707 282.506L199.165 290.436L206.776 276.625C204.621 274.903 201.95 273.951 199.188 273.921H198.992C198.121 273.943 197.251 273.877 196.393 273.725L192.132 276.418L193.957 273.115C190.945 272.066 188.343 270.096 186.519 267.487L178.908 272.298L183.713 263.586C179.266 258.269 173.261 255 166.667 255C158.756 255 151.653 259.684 147.149 266.992C145.799 269.173 143.895 270.959 141.63 272.172C139.365 273.384 136.819 273.98 134.249 273.898H133.822C125.091 273.898 118 283.772 118 295.949C118 308.125 125.091 318 133.822 318C135.744 317.996 137.635 317.522 139.331 316.619C142.306 315.182 145.558 314.404 148.864 314.341C152.17 314.277 155.45 314.929 158.479 316.251C161.055 317.397 163.845 317.993 166.667 318C169.452 317.997 172.206 317.412 174.751 316.285C177.756 314.988 181.005 314.35 184.278 314.414C187.552 314.477 190.774 315.241 193.726 316.653C195.408 317.532 197.277 317.994 199.177 318C207.919 318 214.999 308.125 214.999 295.949C215.046 291.264 213.915 286.643 211.707 282.506V282.506Z" fill="#6C63FF"/>
<path id="Vector_49" opacity="0.1" d="M106.236 72.5064L118.79 80.436L111.168 66.6253C113.323 64.905 115.994 63.9529 118.755 63.9207H119.021C119.891 63.9424 120.762 63.8768 121.619 63.7251L125.869 66.4182L124.044 63.1151C127.059 62.0663 129.666 60.097 131.493 57.4872L139.104 62.298L134.288 53.5857C138.746 48.2685 144.74 45 151.345 45C159.256 45 166.301 49.6841 170.863 56.9923C172.212 59.1736 174.116 60.9609 176.381 62.1735C178.646 63.3861 181.193 63.9809 183.763 63.8977H184.178C192.921 63.8977 200 73.7724 200 85.9488C200 98.1253 192.921 108 184.178 108C182.257 107.993 180.366 107.519 178.67 106.619C175.694 105.182 172.442 104.404 169.136 104.341C165.831 104.277 162.55 104.929 159.522 106.251C156.949 107.397 154.164 107.993 151.345 108C148.56 107.999 145.806 107.415 143.261 106.285C140.255 104.988 137.004 104.35 133.728 104.413C130.453 104.477 127.229 105.241 124.275 106.653C122.594 107.533 120.724 107.995 118.824 108C110.094 108 103.003 98.1253 103.003 85.9488C102.937 81.2692 104.049 76.6478 106.236 72.5064V72.5064Z" fill="#6C63FF"/>
</g>
<g id="rightClouds">
<path id="Vector_50" opacity="0.1" d="M619 45.2941C612.492 44.0409 605.765 44.7903 599.676 47.4471C596.019 49.1108 592.058 49.9706 588.052 49.9706C584.047 49.9706 580.086 49.1108 576.428 47.4471C572.105 45.5164 567.422 44.5649 562.703 44.6583C557.983 44.7518 553.34 45.8879 549.094 47.9882C546.669 49.3007 543.967 49.9911 541.221 50C530.139 50 520.916 38.6235 519 23.6118C521.212 21.9601 523.093 19.8914 524.541 17.5176C531.04 6.84706 541.106 0 552.406 0C563.707 0 573.646 6.7647 580.11 17.3294C582.057 20.5053 584.774 23.1165 587.999 24.9113C591.224 26.7061 594.848 27.624 598.522 27.5765H598.811C607.641 27.5765 615.283 34.7882 619 45.2941Z" fill="#6C63FF"/>
<path id="Vector_51" opacity="0.1" d="M999.395 71.6496L981.677 83.106L992.419 63.2056C989.369 60.7318 985.598 59.3611 981.699 59.3093H981.414C980.183 59.3315 978.953 59.2419 977.738 59.0418L971.733 62.9148L974.313 58.1462C970.055 56.632 966.378 53.7816 963.81 50.0046L953.056 56.9831L959.849 44.4101C953.558 36.7221 945.087 32 935.772 32C924.595 32 914.64 38.7808 908.213 49.33C906.312 52.4975 903.619 55.0932 900.409 56.8509C897.199 58.6085 893.588 59.465 889.947 59.3325H889.342C877.001 59.3325 867 73.592 867 91.1662C867 108.74 877.001 123 889.342 123C892.056 122.991 894.727 122.313 897.128 121.023C901.326 118.941 905.918 117.814 910.585 117.72C915.253 117.626 919.886 118.566 924.161 120.476C927.775 122.13 931.69 122.99 935.651 123C939.613 123.01 943.532 122.17 947.154 120.534C951.398 118.661 955.988 117.738 960.612 117.828C965.237 117.919 969.789 119.02 973.959 121.058C976.334 122.324 978.973 122.99 981.654 123C993.995 123 1004 108.752 1004 91.1662C1004.1 84.3701 1002.51 77.6577 999.395 71.6496Z" fill="#6C63FF"/>
</g>
<g id="mobile">
<path id="Vector_52" d="M1474 468.63C1450.52 475.937 1421.66 485.17 1391.98 494.767C1349.08 508.646 1304.47 523.293 1272 534L1272.02 533.874C1273.22 526.361 1276.04 519.262 1280.26 513.156C1304.31 479.259 1334.94 455.578 1369.03 446.784H1369.04C1378.62 444.306 1388.44 443.036 1398.3 443.001C1425.42 442.903 1451.11 452.123 1474 468.63Z" fill="#F2F2F2"/>
<path id="Vector_53" d="M1396 204.401V680.614C1395.99 686.287 1393.91 691.725 1390.21 695.735C1386.5 699.745 1381.48 701.998 1376.24 702H1197.76C1195.16 702.005 1192.59 701.455 1190.19 700.382C1187.8 699.31 1185.62 697.735 1183.78 695.748C1181.95 693.761 1180.49 691.402 1179.5 688.805C1178.51 686.208 1178 683.424 1178 680.614V204.401C1178 201.59 1178.51 198.807 1179.5 196.211C1180.5 193.614 1181.95 191.255 1183.79 189.268C1185.62 187.28 1187.8 185.704 1190.2 184.629C1192.59 183.553 1195.16 183 1197.76 183H1224.47V186.71C1224.47 191.383 1226.18 195.865 1229.23 199.171C1232.28 202.476 1236.42 204.333 1240.73 204.335H1331.51C1334.98 204.343 1338.37 203.137 1341.16 200.897C1341.72 200.452 1342.25 199.966 1342.76 199.442C1344.35 197.798 1345.61 195.823 1346.47 193.634C1347.34 191.445 1347.78 189.09 1347.78 186.71V183H1376.24C1378.84 182.999 1381.41 183.552 1383.8 184.627C1386.2 185.702 1388.38 187.279 1390.21 189.266C1392.05 191.254 1393.5 193.613 1394.5 196.21C1395.49 198.807 1396 201.59 1396 204.401V204.401Z" fill="#3F3D56"/>
<path id="Vector_54" opacity="0.1" d="M1310.5 386C1338.39 386 1361 380.851 1361 374.5C1361 368.149 1338.39 363 1310.5 363C1282.61 363 1260 368.149 1260 374.5C1260 380.851 1282.61 386 1310.5 386Z" fill="black"/>
<path id="Vector_55" opacity="0.1" d="M1236.5 442C1264.94 442 1288 436.851 1288 430.5C1288 424.149 1264.94 419 1236.5 419C1208.06 419 1185 424.149 1185 430.5C1185 436.851 1208.06 442 1236.5 442Z" fill="black"/>
<path id="Vector_56" opacity="0.1" d="M1279 545C1307.17 545 1330 540.075 1330 534C1330 527.925 1307.17 523 1279 523C1250.83 523 1228 527.925 1228 534C1228 540.075 1250.83 545 1279 545Z" fill="black"/>
<path id="Vector_57" opacity="0.1" d="M1264 658C1291.61 658 1314 653.075 1314 647C1314 640.925 1291.61 636 1264 636C1236.39 636 1214 640.925 1214 647C1214 653.075 1236.39 658 1264 658Z" fill="black"/>
<path id="Vector_58" d="M1441 479H1286V495.274V520.056V534L1298.98 520.056H1441V479Z" fill="#6C63FF"/>
<path id="Vector_59" d="M1073 374H1228V390.569V415.802V430L1215.02 415.802H1073V374Z" fill="#6C63FF"/>
<path id="Vector_60" d="M1407 491H1320V498H1407V491Z" fill="white"/>
<path id="Vector_61" d="M1407 500H1320V509H1407V500Z" fill="white"/>
<path id="Vector_62" d="M1185 386H1100V393H1185V386Z" fill="white"/>
<path id="Vector_63" d="M1185 397H1100V404H1185V397Z" fill="white"/>
<path id="Vector_64" d="M1601 270H1311V300.772V347.634V374L1335.28 347.634H1601V270Z" fill="#6C63FF"/>
<path id="Vector_65" d="M1556 287H1356V305H1556V287Z" fill="white"/>
<path id="Vector_66" d="M1556 313H1356V332H1556V313Z" fill="white"/>
<path id="Vector_67" d="M1245.52 624.687C1252.75 639.599 1268.09 646 1268.09 646C1268.09 646 1271.72 628.225 1264.48 613.313C1257.25 598.401 1241.91 592 1241.91 592C1241.91 592 1238.28 609.775 1245.52 624.687Z" fill="white"/>
<path id="Vector_68" d="M1250.64 620.785C1263.9 629.049 1269 645.463 1269 645.463C1269 645.463 1252.61 648.479 1239.36 640.215C1226.1 631.951 1221 615.537 1221 615.537C1221 615.537 1237.39 612.521 1250.64 620.785Z" fill="#6C63FF"/>
<path id="Vector_69" d="M1232 294L1233 295" stroke="#535461" stroke-miterlimit="10"/>
<g id="Group" opacity="0.5">
<path id="Vector_70" opacity="0.5" d="M1236.22 331.62C1260.73 331.62 1280.6 312.051 1280.6 287.911C1280.6 263.772 1260.73 244.203 1236.22 244.203C1211.71 244.203 1191.84 263.772 1191.84 287.911C1191.84 312.051 1211.71 331.62 1236.22 331.62Z" fill="url(#paint0_linear)"/>
</g>
<path id="Vector_71" d="M1237 331C1261.3 331 1281 311.748 1281 288C1281 264.252 1261.3 245 1237 245C1212.7 245 1193 264.252 1193 288C1193 311.748 1212.7 331 1237 331Z" fill="#F5F5F5"/>
<path id="Vector_72" d="M1261 291.149C1261 307.167 1250.48 325 1237.5 325C1224.52 325 1214 307.164 1214 291.149C1214 275.135 1224.52 267 1237.5 267C1250.48 267 1261 275.128 1261 291.149Z" fill="#FDD835"/>
<path id="Vector_73" d="M1237.03 331C1245.55 331.013 1253.89 328.436 1261 323.589C1259.39 314.516 1253.28 314 1253.28 314H1219.58C1219.58 314 1213.81 314.491 1212 322.835C1219.33 328.16 1228.07 331.013 1237.03 331Z" fill="#6C63FF"/>
<path id="Vector_74" opacity="0.1" d="M1230 304H1242V315.14C1242 316.694 1241.43 318.184 1240.42 319.284C1239.42 320.383 1238.05 321 1236.62 321H1235.38C1233.95 321 1232.58 320.383 1231.58 319.284C1230.57 318.184 1230 316.694 1230 315.14V304V304Z" fill="black"/>
<path id="Vector_75" d="M1231.02 304H1240.97C1241.25 304 1241.51 304.111 1241.7 304.308C1241.89 304.506 1242 304.774 1242 305.053V314.485C1242 315.948 1241.43 317.351 1240.42 318.385C1239.42 319.419 1238.05 320 1236.62 320H1235.38C1233.95 320 1232.58 319.419 1231.58 318.385C1230.57 317.351 1230 315.948 1230 314.485V305.053C1230 304.774 1230.11 304.507 1230.3 304.31C1230.49 304.112 1230.75 304.001 1231.02 304V304Z" fill="#FDB797"/>
<path id="Vector_76" opacity="0.1" d="M1230 309.137C1233.87 310.278 1238.12 310.288 1242 309.164V308H1230V309.137Z" fill="black"/>
<path id="Vector_77" d="M1236 310C1246.49 310 1255 301.27 1255 290.5C1255 279.73 1246.49 271 1236 271C1225.51 271 1217 279.73 1217 290.5C1217 301.27 1225.51 310 1236 310Z" fill="#FDB797"/>
<path id="Vector_78" d="M1254 294C1255.1 294 1256 292.209 1256 290C1256 287.791 1255.1 286 1254 286C1252.9 286 1252 287.791 1252 290C1252 292.209 1252.9 294 1254 294Z" fill="#FDB797"/>
<path id="Vector_79" opacity="0.1" d="M1218 280.967C1218 280.967 1229.37 294.723 1255.41 290.02C1255.41 290.02 1258.32 286.892 1251.24 277.281C1244.16 267.671 1224.45 269.235 1218 280.967Z" fill="black"/>
<path id="Vector_80" d="M1218 280.468C1218 280.468 1229.37 294.903 1255.41 289.975C1255.41 289.975 1258.32 286.689 1251.24 276.597C1244.16 266.505 1224.45 268.144 1218 280.468Z" fill="#FDD835"/>
</g>
<defs>
<linearGradient id="paint0_linear" x1="66014.6" y1="61715.3" x2="66014.6" y2="39111.8" gradientUnits="userSpaceOnUse">
<stop stop-color="#808080" stop-opacity="0.25"/>
<stop offset="0.54" stop-color="#808080" stop-opacity="0.12"/>
<stop offset="1" stop-color="#808080" stop-opacity="0.1"/>
</linearGradient>
</defs>
</svg>
