<svg width="753" height="591" viewBox="0 0 753 591" fill="none" xmlns="http://www.w3.org/2000/svg">
<g id="facebookIcon">
<path id="Vector" d="M28 3C20.5739 3 13.452 5.84463 8.20101 10.9081C2.94999 15.9716 0 22.8392 0 30C0 37.1608 2.94999 44.0284 8.20101 49.0919C13.452 54.1554 20.5739 57 28 57C35.4261 57 42.548 54.1554 47.799 49.0919C53.05 44.0284 56 37.1608 56 30C56 22.8392 53.05 15.9716 47.799 10.9081C42.548 5.84463 35.4261 3 28 3V3Z" fill="#3F51B5"/>
<path id="Vector_2" d="M35.1573 30H30.6667V46H24V30H20V24.6667H24V21.4533C24.0027 16.776 25.9453 14 31.456 14H36V19.3333H32.9507C30.8053 19.3333 30.6667 20.1333 30.6667 21.6307V24.6667H36L35.1573 30Z" fill="white"/>
</g>
<g id="twitterIcon">
<path id="Vector_3" d="M489.5 0C482.207 0 475.212 3.00267 470.055 8.34746C464.897 13.6922 462 20.9413 462 28.5C462 36.0587 464.897 43.3078 470.055 48.6525C475.212 53.9973 482.207 57 489.5 57C496.793 57 503.788 53.9973 508.945 48.6525C514.103 43.3078 517 36.0587 517 28.5C517 20.9413 514.103 13.6922 508.945 8.34746C503.788 3.00267 496.793 0 489.5 0V0Z" fill="#03A9F4"/>
<path id="Vector_4" d="M506 19.0126C504.787 19.5683 503.251 20.0898 501.875 20.2632C503.275 19.4048 505.495 17.6172 506 16C504.692 16.7944 502.327 17.6427 500.785 17.9497C499.553 16.5997 497.795 16 495.848 16C492.108 16 489.5 19.2755 489.5 23.1053V25.9474C484 25.9474 478.638 21.6174 475.3 17.4211C474.713 18.4456 474.383 19.645 474.383 20.9126C474.383 23.4975 476.681 26.1207 478.5 27.3684C477.39 27.3329 475.289 26.4575 474.375 25.9474C474.375 25.9701 474.375 25.9985 474.375 26.0284C474.375 29.392 476.659 31.6756 479.754 32.3123C479.189 32.4728 478.5 33.0526 475.849 33.0526C476.71 35.8024 481.037 37.2561 484 37.3158C481.682 39.1731 477.549 40.1579 474.375 40.1579C473.826 40.1579 473.529 40.1892 473 40.1252C475.995 42.0863 480.178 43 484 43C496.453 43 503.25 33.1692 503.25 24.0005C503.25 23.6993 503.24 22.6903 503.225 22.3947C504.556 21.4256 505.095 20.4109 506 19.0126Z" fill="white"/>
</g>
<g id="linkedinIcon">
<path id="Vector_5" d="M253.5 0C245.941 0 238.692 3.00267 233.347 8.34746C228.003 13.6922 225 20.9413 225 28.5C225 36.0587 228.003 43.3078 233.347 48.6525C238.692 53.9973 245.941 57 253.5 57C261.059 57 268.308 53.9973 273.653 48.6525C278.997 43.3078 282 36.0587 282 28.5C282 20.9413 278.997 13.6922 273.653 8.34746C268.308 3.00267 261.059 0 253.5 0V0Z" fill="#0288D1"/>
<path id="Vector_6" d="M239 21.5714H244.714V43H239V21.5714ZM241.84 18.7143H241.809C240.103 18.7143 239 17.4429 239 15.8557C239 14.2343 240.137 13 241.873 13C243.611 13 244.681 14.2343 244.714 15.8557C244.714 17.4429 243.611 18.7143 241.84 18.7143ZM269 29.4286C269 25.0886 265.483 21.5714 261.143 21.5714C258.483 21.5714 256.136 22.8971 254.714 24.92V21.5714H249V43H254.714V31.5714C254.714 29.2043 256.633 27.2857 259 27.2857C261.367 27.2857 263.286 29.2043 263.286 31.5714V43H269C269 43 269 30.03 269 29.4286Z" fill="white"/>
</g>
<g id="mediumIcon">
<path id="Vector_7" d="M351 96H406V149H351V96Z" fill="#37474F"/>
<path id="Vector_8" d="M394.124 111.285L397 108.553V108H386.707L379.076 125.376L371.036 108H359.776V108.553L362.698 111.885C362.814 112.017 362.878 112.184 362.878 112.356V130.462C362.878 130.732 362.78 130.992 362.603 131.202L359 135.446V136H369.857V135.447L366.251 131.165C366.076 130.956 365.98 130.696 365.98 130.428V114.963L375.852 136H377.806L386.143 116.964V131.827C386.143 132.023 386.061 132.21 385.916 132.347L382.653 135.447V136H397V135.447L394.124 132.715C393.98 132.578 393.898 132.391 393.898 132.195V111.805C393.898 111.609 393.98 111.422 394.124 111.285Z" fill="white"/>
</g>
<g id="youtubeIcon">
<path id="Vector_9" d="M56.7431 580.35C56.1845 583.5 53.8105 585.9 50.8778 586.35C46.2693 587.1 38.5885 588 29.9302 588C21.4115 588 13.7307 587.1 8.98254 586.35C6.04988 585.9 3.67581 583.5 3.11721 580.35C2.5586 576.9 2 571.8 2 565.5C2 559.2 2.5586 554.1 3.11721 550.65C3.67581 547.5 6.04988 545.1 8.98254 544.65C13.591 543.9 21.2718 543 29.9302 543C38.5885 543 46.1297 543.9 50.8778 544.65C53.8105 545.1 56.1845 547.5 56.7431 550.65C57.3018 554.1 58 559.2 58 565.5C57.8604 571.8 57.3018 576.9 56.7431 580.35Z" fill="#FF3D00"/>
<path id="Vector_10" d="M24 576V555L41 565.5L24 576Z" fill="white"/>
</g>
<g id="behanceIcon">
<path id="Vector_11" d="M119 448.111C119 444.736 121.686 442 125 442H167C170.314 442 173 444.736 173 448.111V490.889C173 494.264 170.314 497 167 497H125C121.686 497 119 494.264 119 490.889V448.111Z" fill="#2196F3"/>
<path id="Vector_12" d="M150.5 459H161V462H150.5V459ZM142.268 468.641C143.145 468.214 145.123 467.24 145.123 464.356C145.123 458.931 139.195 459.001 138.098 459.001H128V480H138.537C139.415 479.999 146 479.751 146 473.997C146 470.285 143.585 469.07 142.268 468.641ZM132.5 462.642H136.892C137.33 462.642 140.184 462.798 140.184 465C140.184 467.2 137.99 467.57 137.332 467.57H132.5V462.642ZM137.504 476.355H132.453V470.572H137.504C138.601 470.572 141.016 470.927 141.016 473.571C141.016 476.213 137.942 476.355 137.504 476.355ZM158.657 476.091C157.959 476.525 157.263 476.745 156.333 476.745C152.844 476.745 152.15 473.804 152.15 472.501H164C164 471.197 164 470.234 163.768 469.147C163.534 468.059 161.945 463.5 156.101 463.5C147.933 463.5 147.5 470.666 147.5 471.749C147.5 472.834 147.734 474.138 148.2 475.005C148.664 476.091 149.129 476.961 149.827 477.609C150.523 478.262 151.451 478.908 152.381 479.345C153.542 479.781 154.704 479.999 155.867 479.999C157.724 479.999 159.353 479.567 160.747 478.697C162.143 477.828 163.072 476.525 163.768 474.788H159.818C159.586 475.223 159.353 475.655 158.657 476.091ZM156.101 466.54C158.378 466.54 159.353 468.928 159.584 470.011H152.15C152.15 469.796 152.706 466.54 156.101 466.54Z" fill="white"/>
</g>
<g id="pinterestIcon">
<path id="Vector_13" d="M136.5 95C129.207 95 122.212 97.8973 117.055 103.055C111.897 108.212 109 115.207 109 122.5C109 129.793 111.897 136.788 117.055 141.945C122.212 147.103 129.207 150 136.5 150C143.793 150 150.788 147.103 155.945 141.945C161.103 136.788 164 129.793 164 122.5C164 115.207 161.103 108.212 155.945 103.055C150.788 97.8973 143.793 95 136.5 95V95Z" fill="#D32F2F"/>
<path id="Vector_14" d="M130.246 126.867C130.246 122.317 129.455 120.741 129.455 118.956C129.455 114.899 132.457 114.567 133.727 114.567C135.536 114.567 137.909 115.757 137.909 117.983C137.909 121.224 135.091 121.634 135.091 121.634C135.091 121.634 135.091 122.767 135.091 124.762C135.091 126.867 135.615 129.6 139.491 129.6C145.711 129.6 146.364 121.192 146.364 118.889C146.364 115.706 144.264 109.1 136.8 109.1C126.845 109.1 125.227 117.728 125.227 120.033C125.227 121.02 125.413 122.933 125.606 123.678C128.574 124.389 127.882 126.924 127.077 127.635C125.909 128.682 121 128.885 121 119.111C121 109.801 129.556 105 137.066 105C144.213 105 152 109.786 152 119.003C152 127.227 145.903 133.704 139.499 133.704C135.655 133.704 133.616 130.632 133.616 130.632C133.616 136.433 128.743 144.747 128.045 146C128.045 146 130.246 135.266 130.246 126.867Z" fill="white"/>
</g>
<g id="dribbleIcon">
<path id="Vector_15" d="M640 141.639C640 145.705 636.519 149 632.222 149H591.778C587.483 149 584 145.705 584 141.639V103.361C584 99.2948 587.483 96 591.778 96H632.222C636.519 96 640 99.2948 640 103.361V141.639Z" fill="#FF4081"/>
<path id="Vector_16" d="M626.498 126.108C625.374 125.781 624.156 126.367 623.801 127.434C622.482 131.372 620.095 135.462 619.012 135.686C618.201 135.686 617.034 135.049 615.879 133.553C618.557 128.228 619.961 121.544 619.961 117.081C619.961 104.618 616.562 102 613.708 102C607.696 102 607.628 116.684 607.628 116.833C607.628 118.56 607.695 120.163 607.821 121.656C606.992 121.376 606.04 121.184 604.989 121.184C598.813 121.184 596 126.827 596 132.068C596 137.007 598.994 142 605.674 142C608.829 142 611.488 140.087 613.634 137.228C615.535 139.058 617.525 139.741 619.01 139.741C623.687 139.741 626.783 131.988 627.9 128.65C628.257 127.585 627.628 126.447 626.498 126.108ZM605.677 137.947C600.827 137.947 600.301 133.836 600.301 132.067C600.301 131.788 600.355 125.236 604.992 125.236C606.823 125.236 608.228 126.547 608.228 126.547C608.332 126.65 608.447 126.741 608.567 126.819C609.167 129.64 610.013 131.895 610.992 133.681C609.386 136.256 607.525 137.947 605.677 137.947ZM613.442 128.557C612.548 125.698 611.928 121.859 611.928 116.833C611.928 112.201 612.994 107.843 613.879 106.354C614.557 107.308 615.663 110.28 615.663 117.081C615.663 120.69 614.8 124.883 613.442 128.557Z" fill="white"/>
</g>
<g id="githubIcon">
<path id="Vector_17" d="M259.5 537C243.754 537 231 549.396 231 564.686C231 576.92 239.165 587.295 250.487 590.952C251.912 591.213 252.434 590.357 252.434 589.621C252.434 588.963 252.411 587.222 252.399 584.914C244.471 586.585 242.799 581.2 242.799 581.2C241.502 578.005 239.628 577.151 239.628 577.151C237.047 575.434 239.828 575.469 239.828 575.469C242.69 575.663 244.193 578.321 244.193 578.321C246.734 582.554 250.865 581.331 252.494 580.623C252.75 578.833 253.484 577.612 254.299 576.92C247.969 576.228 241.317 573.847 241.317 563.239C241.317 560.217 242.421 557.748 244.25 555.81C243.929 555.111 242.968 552.296 244.5 548.483C244.5 548.483 246.886 547.74 252.337 551.32C254.617 550.704 257.04 550.4 259.462 550.386C261.885 550.4 264.307 550.704 266.587 551.32C272.002 547.74 274.389 548.483 274.389 548.483C275.921 552.296 274.959 555.111 274.674 555.81C276.491 557.748 277.595 560.217 277.595 563.239C277.595 573.875 270.933 576.217 264.592 576.897C265.59 577.728 266.516 579.426 266.516 582.019C266.516 585.724 266.48 588.7 266.48 589.6C266.48 590.327 266.979 591.192 268.439 590.915C279.842 587.284 288 576.902 288 564.686C288 549.396 275.239 537 259.5 537" fill="black"/>
</g>
<g id="telegramIcon">
<path id="Vector_18" d="M506 591C521.464 591 534 578.688 534 563.5C534 548.312 521.464 536 506 536C490.536 536 478 548.312 478 563.5C478 578.688 490.536 591 506 591Z" fill="#139BD0"/>
<path id="Vector_19" fill-rule="evenodd" clip-rule="evenodd" d="M506.917 570.072C505.839 571.103 504.77 572.118 503.711 573.14C503.341 573.498 502.924 573.696 502.393 573.669C502.03 573.65 501.827 573.494 501.716 573.156C500.905 570.682 500.081 568.215 499.274 565.74C499.196 565.5 499.08 565.383 498.833 565.308C496.921 564.734 495.013 564.148 493.109 563.553C492.816 563.461 492.52 563.342 492.267 563.172C491.876 562.912 491.818 562.487 492.169 562.182C492.493 561.9 492.88 561.654 493.282 561.498C495.619 560.589 497.968 559.709 500.313 558.821C506.264 556.564 512.216 554.309 518.168 552.052C519.3 551.622 520.17 552.227 520.052 553.429C519.977 554.198 519.774 554.955 519.61 555.714C518.318 561.707 517.025 567.701 515.725 573.693C515.417 575.115 514.399 575.487 513.207 574.623C511.21 573.178 509.216 571.728 507.22 570.28C507.125 570.212 507.026 570.147 506.917 570.072ZM502.435 571.892C502.458 571.886 502.48 571.88 502.502 571.874C502.515 571.818 502.533 571.763 502.538 571.707C502.666 570.349 502.802 568.991 502.913 567.63C502.938 567.327 503.044 567.112 503.276 566.908C505.116 565.291 506.946 563.664 508.779 562.041C510.808 560.244 512.838 558.449 514.859 556.644C514.984 556.533 515.037 556.343 515.122 556.189C514.932 556.169 514.728 556.094 514.555 556.138C514.319 556.198 514.096 556.332 513.885 556.462C509.407 559.233 504.933 562.008 500.452 564.772C500.198 564.929 500.151 565.061 500.248 565.335C500.578 566.266 500.878 567.207 501.19 568.146C501.605 569.395 502.02 570.643 502.435 571.892Z" fill="white"/>
</g>
<g id="spotifyIcon">
<g id="spotifyIcon_2">
<g id="x34  stroke">
<g id="Spotify 1">
<path id="Spotify" fill-rule="evenodd" clip-rule="evenodd" d="M378.5 442C363.375 442 351 454.375 351 469.5C351 484.625 363.375 497 378.5 497C393.625 497 406 484.625 406 469.5C406 454.375 393.763 442 378.5 442ZM391.15 481.738C390.6 482.563 389.637 482.838 388.812 482.288C382.35 478.3 374.237 477.475 364.613 479.675C363.65 479.95 362.825 479.263 362.55 478.438C362.275 477.475 362.963 476.65 363.788 476.375C374.237 474.037 383.312 475 390.462 479.4C391.425 479.813 391.563 480.913 391.15 481.738ZM394.45 474.175C393.763 475.137 392.525 475.55 391.563 474.863C384.138 470.325 372.862 468.95 364.2 471.7C363.1 471.975 361.862 471.425 361.587 470.325C361.312 469.225 361.863 467.988 362.963 467.713C373 464.688 385.375 466.2 393.9 471.425C394.725 471.838 395.138 473.212 394.45 474.175ZM394.725 466.475C385.925 461.25 371.213 460.7 362.825 463.312C361.45 463.725 360.075 462.9 359.662 461.662C359.25 460.287 360.075 458.913 361.312 458.5C371.075 455.613 387.162 456.163 397.337 462.213C398.575 462.9 398.988 464.55 398.3 465.788C397.613 466.75 395.963 467.162 394.725 466.475Z" fill="#10BC4C"/>
</g>
</g>
</g>
</g>
<g id="instagramIcon">
<g id="3-instagram">
<path id="Vector_20" d="M695.1 54L728.9 54C733.926 54 738 50.0041 738 45.075V11.925C738 6.99586 733.926 3 728.9 3L695.1 3C690.074 3 686 6.99586 686 11.925V45.075C686 50.0041 690.074 54 695.1 54Z" fill="url(#paint0_radial)"/>
<path id="Vector_21" d="M721.75 47.625H702.25C699.664 47.625 697.184 46.6175 695.356 44.8242C693.527 43.0309 692.5 40.5986 692.5 38.0625V18.9375C692.5 16.4014 693.527 13.9691 695.356 12.1758C697.184 10.3825 699.664 9.375 702.25 9.375H721.75C724.336 9.375 726.816 10.3825 728.644 12.1758C730.473 13.9691 731.5 16.4014 731.5 18.9375V38.0625C731.5 40.5986 730.473 43.0309 728.644 44.8242C726.816 46.6175 724.336 47.625 721.75 47.625V47.625ZM702.25 13.2C700.699 13.2021 699.212 13.8073 698.116 14.8828C697.019 15.9583 696.402 17.4165 696.4 18.9375V38.0625C696.402 39.5835 697.019 41.0417 698.116 42.1172C699.212 43.1927 700.699 43.7979 702.25 43.8H721.75C723.301 43.7979 724.788 43.1927 725.884 42.1172C726.981 41.0417 727.598 39.5835 727.6 38.0625V18.9375C727.598 17.4165 726.981 15.9583 725.884 14.8828C724.788 13.8073 723.301 13.2021 721.75 13.2H702.25Z" fill="white"/>
<path id="Vector_22" d="M712 39.3375C709.815 39.3375 707.678 38.7019 705.861 37.5111C704.044 36.3202 702.627 34.6276 701.791 32.6473C700.955 30.667 700.736 28.488 701.162 26.3857C701.589 24.2835 702.641 22.3524 704.186 20.8367C705.732 19.3211 707.701 18.2889 709.844 17.8708C711.988 17.4526 714.21 17.6672 716.229 18.4875C718.248 19.3077 719.974 20.6968 721.188 22.479C722.402 24.2612 723.05 26.3566 723.05 28.5C723.048 31.3736 721.883 34.129 719.811 36.161C717.739 38.1929 714.93 39.3354 712 39.3375V39.3375ZM712 21.4875C710.586 21.4875 709.203 21.8988 708.028 22.6693C706.852 23.4399 705.935 24.5351 705.394 25.8164C704.853 27.0978 704.711 28.5078 704.987 29.8681C705.263 31.2284 705.944 32.4779 706.944 33.4586C707.944 34.4393 709.218 35.1072 710.605 35.3778C711.992 35.6483 713.43 35.5095 714.736 34.9787C716.043 34.448 717.159 33.5491 717.945 32.3959C718.731 31.2427 719.15 29.887 719.15 28.5C719.148 26.6408 718.394 24.8584 717.053 23.5438C715.713 22.2291 713.896 21.4896 712 21.4875V21.4875Z" fill="white"/>
<path id="Vector_23" d="M723.05 20.2125C724.127 20.2125 725 19.3563 725 18.3C725 17.2438 724.127 16.3875 723.05 16.3875C721.973 16.3875 721.1 17.2438 721.1 18.3C721.1 19.3563 721.973 20.2125 723.05 20.2125Z" fill="white"/>
</g>
</g>
<g id="vimeoIcon">
<g id="Layer 2">
<g id="Layer 1">
<path id="Vector_24" d="M627.431 443H596.569C589.628 443 584 448.427 584 455.121V484.879C584 491.573 589.628 497 596.569 497H627.431C634.372 497 640 491.573 640 484.879V455.121C640 448.427 634.372 443 627.431 443Z" fill="#23B6EA"/>
<path id="Vector_25" d="M626.383 463.575C626.131 468.775 616.277 481.98 610.574 481.98C608.893 481.98 607.477 480.49 606.326 477.51C604.115 469.654 603.126 464.828 601.225 464.828C600.412 465.155 599.653 465.596 598.975 466.138L597.617 464.454C601.225 461.405 604.134 458.525 606.074 458.356C608.298 458.095 609.669 459.56 610.186 462.752C610.846 466.792 611.816 473.32 613.484 473.32C614.784 473.32 617.965 468.251 618.12 466.418C618.411 463.799 616.18 463.65 614.046 464.548C615.469 460.083 618.185 457.889 622.193 457.964C625.155 458.051 626.551 459.921 626.383 463.575V463.575Z" fill="white"/>
</g>
</g>
</g>
<g id="gmailIcon">
<g id="Group">
<path id="Vector_26" d="M749.991 553.499L746.352 588H702.648L699.716 554.167L724.5 567.269L749.991 553.499Z" fill="#F2F2F2"/>
<path id="Vector_27" d="M748.757 547L724.5 568.515L700.243 547H724.5H748.757Z" fill="#F2F2F2"/>
</g>
<path id="Vector_28" d="M702 557.493V588H698.426C697.086 588 696 586.884 696 585.508V553L699.919 553.11L702 557.493Z" fill="#F14336"/>
<path id="Vector_29" d="M753 553.307V585.53C753 586.894 751.914 588 750.573 588H747V557.761L748.979 553L753 553.307Z" fill="#D32E2A"/>
<path id="Vector_30" d="M753 549.54V552.365L746.352 556.945L724.5 572L702.648 556.945L696 552.365V549.54C696 548.138 697.204 547 698.687 547H700.243L724.5 563.711L748.757 547H750.311C751.796 547 753 548.138 753 549.54Z" fill="#F14336"/>
<path id="Vector_31" d="M710 554L704 553.149V550L710 554Z" fill="#D32E2A"/>
</g>
<defs>
<radialGradient id="paint0_radial" cx="0" cy="0" r="1" gradientUnits="userSpaceOnUse" gradientTransform="translate(684.954 52.9641) rotate(180) scale(120.083 117.774)">
<stop stop-color="#F9ED32"/>
<stop offset="0.36" stop-color="#EE2A7B"/>
<stop offset="0.44" stop-color="#D22A8A"/>
<stop offset="0.6" stop-color="#8B2AB2"/>
<stop offset="0.83" stop-color="#1B2AF0"/>
<stop offset="0.88" stop-color="#002AFF"/>
</radialGradient>
</defs>
</svg>
