<svg width="738" height="591" viewBox="0 0 738 591" fill="none" xmlns="http://www.w3.org/2000/svg">
<g id="facebookIcon">
<path id="Vector" d="M21 3C16.7565 3 12.6869 4.68571 9.68629 7.68629C6.68571 10.6869 5 14.7565 5 19C5 23.2435 6.68571 27.3131 9.68629 30.3137C12.6869 33.3143 16.7565 35 21 35C25.2435 35 29.3131 33.3143 32.3137 30.3137C35.3143 27.3131 37 23.2435 37 19C37 14.7565 35.3143 10.6869 32.3137 7.68629C29.3131 4.68571 25.2435 3 21 3V3Z" fill="#3F51B5"/>
<path id="Vector_2" d="M25.0899 19H22.5238V28.4815H18.7143V19H16.4286V15.8395H18.7143V13.9353C18.7158 11.1636 19.8259 9.51852 22.9748 9.51852H25.5714V12.679H23.8289C22.603 12.679 22.5238 13.1531 22.5238 14.0404V15.8395H25.5714L25.0899 19Z" fill="white"/>
</g>
<g id="twitterIcon">
<path id="Vector_3" d="M482 0C477.226 0 472.648 1.84374 469.272 5.12563C465.896 8.40752 464 12.8587 464 17.5C464 22.1413 465.896 26.5925 469.272 29.8744C472.648 33.1563 477.226 35 482 35C486.774 35 491.352 33.1563 494.728 29.8744C498.104 26.5925 500 22.1413 500 17.5C500 12.8587 498.104 8.40752 494.728 5.12563C491.352 1.84374 486.774 0 482 0V0Z" fill="#03A9F4"/>
<path id="Vector_4" d="M492.8 11.6744C492.006 12.0156 491.001 12.3358 490.1 12.4423C491.016 11.9152 492.47 10.8175 492.8 9.82455C491.944 10.3123 490.396 10.8333 489.386 11.0217C488.58 10.1928 487.43 9.82455 486.155 9.82455C483.707 9.82455 482 11.8358 482 14.1874V15.9326C478.4 15.9326 474.89 13.2738 472.706 10.6971C472.321 11.3263 472.105 12.0627 472.105 12.8411C472.105 14.4283 473.609 16.039 474.8 16.8052C474.074 16.7833 472.699 16.2458 472.1 15.9326C472.1 15.9465 472.1 15.964 472.1 15.9823C472.1 18.0477 473.595 19.4499 475.621 19.8409C475.251 19.9395 474.8 20.2955 473.065 20.2955C473.628 21.9839 476.461 22.8765 478.4 22.9132C476.883 24.0537 474.177 24.6583 472.1 24.6583C471.741 24.6583 471.547 24.6775 471.2 24.6383C473.16 25.8424 475.898 26.4035 478.4 26.4035C486.551 26.4035 491 20.367 491 14.7372C491 14.5522 490.994 13.9326 490.984 13.7511C491.855 13.1561 492.208 12.533 492.8 11.6744Z" fill="white"/>
</g>
<g id="linkedinIcon">
<path id="Vector_5" d="M244 0C239.491 0 235.167 1.84374 231.979 5.12563C228.791 8.40752 227 12.8587 227 17.5C227 22.1413 228.791 26.5925 231.979 29.8744C235.167 33.1563 239.491 35 244 35C248.509 35 252.833 33.1563 256.021 29.8744C259.209 26.5925 261 22.1413 261 17.5C261 12.8587 259.209 8.40752 256.021 5.12563C252.833 1.84374 248.509 0 244 0V0Z" fill="#0288D1"/>
<path id="Vector_6" d="M235.351 13.2456H238.759V26.4035H235.351V13.2456ZM237.045 11.4912H237.026C236.009 11.4912 235.351 10.7105 235.351 9.73596C235.351 8.74035 236.029 7.98245 237.065 7.98245C238.102 7.98245 238.74 8.74035 238.759 9.73596C238.759 10.7105 238.102 11.4912 237.045 11.4912ZM253.246 18.0702C253.246 15.4053 251.148 13.2456 248.559 13.2456C246.972 13.2456 245.572 14.0596 244.724 15.3018V13.2456H241.316V26.4035H244.724V19.386C244.724 17.9325 245.869 16.7544 247.281 16.7544C248.693 16.7544 249.837 17.9325 249.837 19.386V26.4035H253.246C253.246 26.4035 253.246 18.4395 253.246 18.0702Z" fill="white"/>
</g>
<g id="mediumIcon">
<path id="Vector_7" d="M358 97H390V131H358V97Z" fill="#37474F"/>
<path id="Vector_8" d="M383.091 106.805L384.764 105.053V104.698H378.775L374.335 115.845L369.657 104.698H363.106V105.053L364.806 107.19C364.874 107.275 364.911 107.382 364.911 107.493V119.108C364.911 119.281 364.854 119.448 364.751 119.582L362.655 122.305V122.66H368.971V122.306L366.873 119.559C366.771 119.424 366.715 119.258 366.715 119.086V109.165L372.459 122.66H373.596L378.447 110.449V119.983C378.447 120.109 378.399 120.229 378.315 120.317L376.416 122.306V122.66H384.764V122.306L383.091 120.553C383.007 120.465 382.959 120.345 382.959 120.219V107.139C382.959 107.013 383.007 106.893 383.091 106.805Z" fill="white"/>
</g>
<g id="youtubeIcon">
<path id="Vector_9" d="M36.1696 583.07C35.8005 585.1 34.2319 586.647 32.2943 586.937C29.2494 587.42 24.1746 588 18.4539 588C12.8254 588 7.75062 587.42 4.61347 586.937C2.67581 586.647 1.10723 585.1 0.738155 583.07C0.369077 580.847 0 577.56 0 573.5C0 569.44 0.369077 566.153 0.738155 563.93C1.10723 561.9 2.67581 560.353 4.61347 560.063C7.65835 559.58 12.7332 559 18.4539 559C24.1746 559 29.1571 559.58 32.2943 560.063C34.2319 560.353 35.8005 561.9 36.1696 563.93C36.5387 566.153 37 569.44 37 573.5C36.9077 577.56 36.5387 580.847 36.1696 583.07Z" fill="#FF3D00"/>
<path id="Vector_10" d="M14.5357 580.267V566.733L25.7678 573.5L14.5357 580.267Z" fill="white"/>
</g>
<g id="behanceIcon">
<path id="Vector_11" d="M127 452.444C127 450.542 128.492 449 130.333 449H153.667C155.507 449 157 450.542 157 452.444V476.556C157 478.458 155.507 480 153.667 480H130.333C128.492 480 127 478.458 127 476.556V452.444Z" fill="#2196F3"/>
<path id="Vector_12" d="M144.5 458.582H150.333V460.273H144.5V458.582ZM139.927 464.016C140.414 463.775 141.513 463.226 141.513 461.601C141.513 458.543 138.219 458.583 137.61 458.583H132V470.418H137.854C138.342 470.417 142 470.278 142 467.035C142 464.943 140.658 464.258 139.927 464.016ZM134.5 460.634H136.94C137.183 460.634 138.769 460.722 138.769 461.963C138.769 463.204 137.55 463.412 137.184 463.412H134.5V460.634ZM137.28 468.364H134.474V465.104H137.28C137.889 465.104 139.231 465.304 139.231 466.795C139.231 468.284 137.523 468.364 137.28 468.364ZM149.032 468.215C148.644 468.459 148.257 468.584 147.741 468.584C145.802 468.584 145.417 466.926 145.417 466.191H152C152 465.457 152 464.914 151.871 464.301C151.741 463.688 150.858 461.118 147.612 461.118C143.074 461.118 142.833 465.157 142.833 465.768C142.833 466.379 142.963 467.114 143.222 467.603C143.48 468.215 143.738 468.705 144.126 469.071C144.513 469.438 145.028 469.803 145.545 470.049C146.19 470.295 146.836 470.417 147.482 470.417C148.513 470.417 149.418 470.174 150.193 469.684C150.968 469.194 151.484 468.459 151.871 467.48H149.677C149.548 467.726 149.418 467.969 149.032 468.215ZM147.612 462.832C148.877 462.832 149.418 464.177 149.547 464.788H145.417C145.417 464.667 145.726 462.832 147.612 462.832Z" fill="white"/>
</g>
<g id="pinterestIcon">
<path id="Vector_13" d="M140.5 96C136.124 96 131.927 97.8437 128.833 101.126C125.738 104.408 124 108.859 124 113.5C124 118.141 125.738 122.592 128.833 125.874C131.927 129.156 136.124 131 140.5 131C144.876 131 149.073 129.156 152.167 125.874C155.262 122.592 157 118.141 157 113.5C157 108.859 155.262 104.408 152.167 101.126C149.073 97.8437 144.876 96 140.5 96V96Z" fill="#D32F2F"/>
<path id="Vector_14" d="M136.748 116.279C136.748 113.384 136.273 112.381 136.273 111.245C136.273 108.663 138.074 108.452 138.836 108.452C139.922 108.452 141.345 109.209 141.345 110.626C141.345 112.688 139.655 112.949 139.655 112.949C139.655 112.949 139.655 113.67 139.655 114.939C139.655 116.279 139.969 118.018 142.295 118.018C146.027 118.018 146.418 112.668 146.418 111.202C146.418 109.177 145.158 104.973 140.68 104.973C134.707 104.973 133.736 110.463 133.736 111.93C133.736 112.558 133.848 113.776 133.964 114.25C135.744 114.702 135.329 116.315 134.846 116.768C134.146 117.434 131.2 117.563 131.2 111.343C131.2 105.419 136.334 102.364 140.84 102.364C145.128 102.364 149.8 105.409 149.8 111.275C149.8 116.508 146.142 120.63 142.299 120.63C139.993 120.63 138.769 118.675 138.769 118.675C138.769 122.367 135.846 127.657 135.427 128.455C135.427 128.455 136.748 121.624 136.748 116.279Z" fill="white"/>
</g>
<g id="dribbleIcon">
<path id="Vector_15" d="M628 125.278C628 127.886 625.949 130 623.417 130H599.583C597.052 130 595 127.886 595 125.278V100.722C595 98.1137 597.052 96 599.583 96H623.417C625.949 96 628 98.1137 628 100.722V125.278Z" fill="#FF4081"/>
<path id="Vector_16" d="M620.044 115.315C619.381 115.105 618.663 115.481 618.454 116.165C617.677 118.691 616.27 121.315 615.632 121.459C615.154 121.459 614.467 121.05 613.786 120.09C615.364 116.675 616.191 112.387 616.191 109.524C616.191 101.528 614.188 99.8491 612.506 99.8491C608.964 99.8491 608.923 109.269 608.923 109.364C608.923 110.472 608.963 111.501 609.037 112.459C608.549 112.279 607.988 112.156 607.369 112.156C603.729 112.156 602.071 115.776 602.071 119.138C602.071 122.307 603.836 125.509 607.772 125.509C609.631 125.509 611.199 124.282 612.463 122.448C613.583 123.622 614.756 124.06 615.631 124.06C618.387 124.06 620.212 119.087 620.87 116.946C621.08 116.262 620.709 115.532 620.044 115.315ZM607.774 122.909C604.916 122.909 604.606 120.272 604.606 119.137C604.606 118.958 604.638 114.755 607.37 114.755C608.449 114.755 609.277 115.596 609.277 115.596C609.338 115.663 609.406 115.72 609.477 115.771C609.83 117.58 610.329 119.027 610.906 120.173C609.96 121.825 608.863 122.909 607.774 122.909ZM612.35 116.886C611.823 115.051 611.458 112.589 611.458 109.364C611.458 106.393 612.086 103.597 612.607 102.642C613.007 103.254 613.659 105.161 613.659 109.524C613.659 111.839 613.15 114.529 612.35 116.886Z" fill="white"/>
</g>
<g id="githubIcon">
<path id="Vector_17" d="M244 559C234.607 559 227 566.346 227 575.406C227 582.656 231.87 588.805 238.624 590.972C239.474 591.126 239.785 590.619 239.785 590.183C239.785 589.793 239.771 588.761 239.764 587.394C235.035 588.384 234.038 585.193 234.038 585.193C233.264 583.299 232.147 582.793 232.147 582.793C230.607 581.776 232.266 581.796 232.266 581.796C233.973 581.911 234.87 583.486 234.87 583.486C236.385 585.995 238.849 585.27 239.821 584.851C239.974 583.79 240.412 583.067 240.898 582.656C237.122 582.246 233.154 580.835 233.154 574.549C233.154 572.758 233.813 571.295 234.904 570.147C234.712 569.732 234.139 568.064 235.052 565.804C235.052 565.804 236.476 565.364 239.727 567.486C241.087 567.121 242.532 566.941 243.977 566.932C245.422 566.941 246.867 567.121 248.227 567.486C251.457 565.364 252.881 565.804 252.881 565.804C253.795 568.064 253.221 569.732 253.051 570.147C254.135 571.295 254.794 572.758 254.794 574.549C254.794 580.852 250.82 582.239 247.037 582.643C247.632 583.135 248.185 584.141 248.185 585.678C248.185 587.874 248.164 589.637 248.164 590.17C248.164 590.601 248.461 591.114 249.332 590.95C256.134 588.798 261 582.645 261 575.406C261 566.346 253.388 559 244 559" fill="black"/>
</g>
<g id="telegramIcon">
<path id="Vector_18" d="M503 591C512.389 591 520 583.389 520 574C520 564.611 512.389 557 503 557C493.611 557 486 564.611 486 574C486 583.389 493.611 591 503 591Z" fill="#139BD0"/>
<path id="Vector_19" fill-rule="evenodd" clip-rule="evenodd" d="M503.557 578.063C502.902 578.7 502.253 579.327 501.61 579.959C501.385 580.181 501.133 580.303 500.81 580.286C500.59 580.275 500.467 580.178 500.399 579.969C499.906 578.44 499.407 576.915 498.917 575.385C498.869 575.236 498.799 575.164 498.648 575.117C497.488 574.763 496.33 574.4 495.173 574.033C494.995 573.976 494.816 573.902 494.662 573.798C494.424 573.637 494.39 573.374 494.603 573.185C494.8 573.011 495.035 572.859 495.279 572.762C496.697 572.2 498.123 571.656 499.547 571.107C503.161 569.712 506.774 568.318 510.388 566.923C511.075 566.658 511.603 567.032 511.532 567.775C511.486 568.25 511.363 568.718 511.264 569.187C510.479 572.892 509.693 576.597 508.905 580.301C508.717 581.18 508.1 581.41 507.376 580.876C506.164 579.983 504.952 579.086 503.741 578.191C503.683 578.15 503.623 578.109 503.557 578.063ZM500.836 579.188C500.849 579.184 500.863 579.18 500.877 579.177C500.884 579.142 500.895 579.108 500.898 579.074C500.976 578.234 501.058 577.394 501.126 576.553C501.141 576.366 501.205 576.233 501.346 576.107C502.464 575.107 503.574 574.102 504.687 573.098C505.919 571.987 507.151 570.877 508.379 569.762C508.455 569.693 508.486 569.576 508.539 569.481C508.423 569.468 508.299 569.422 508.194 569.449C508.051 569.486 507.915 569.569 507.788 569.65C505.069 571.362 502.352 573.077 499.631 574.787C499.478 574.883 499.449 574.965 499.507 575.134C499.708 575.71 499.891 576.292 500.08 576.872C500.332 577.644 500.584 578.416 500.836 579.188Z" fill="white"/>
</g>
<g id="spotifyIcon">
<g id="spotifyIcon_2">
<g id="x34  stroke">
<g id="Spotify 1">
<path id="Spotify" fill-rule="evenodd" clip-rule="evenodd" d="M374 448C365.2 448 358 455.2 358 464C358 472.8 365.2 480 374 480C382.8 480 390 472.8 390 464C390 455.2 382.88 448 374 448ZM381.36 471.12C381.04 471.6 380.48 471.76 380 471.44C376.24 469.12 371.52 468.64 365.92 469.92C365.36 470.08 364.88 469.68 364.72 469.2C364.56 468.64 364.96 468.16 365.44 468C371.52 466.64 376.8 467.2 380.96 469.76C381.52 470 381.6 470.64 381.36 471.12ZM383.28 466.72C382.88 467.28 382.16 467.52 381.6 467.12C377.28 464.48 370.72 463.68 365.68 465.28C365.04 465.44 364.32 465.12 364.16 464.48C364 463.84 364.32 463.12 364.96 462.96C370.8 461.2 378 462.08 382.96 465.12C383.44 465.36 383.68 466.16 383.28 466.72ZM383.44 462.24C378.32 459.2 369.76 458.88 364.88 460.4C364.08 460.64 363.28 460.16 363.04 459.44C362.8 458.64 363.28 457.84 364 457.6C369.68 455.92 379.04 456.24 384.96 459.76C385.68 460.16 385.92 461.12 385.52 461.84C385.12 462.4 384.16 462.64 383.44 462.24Z" fill="#10BC4C"/>
</g>
</g>
</g>
</g>
<g id="instagramIcon">
<g id="3-instagram">
<path id="Vector_20" d="M693.425 35H713.575C716.571 35 719 32.4928 719 29.4V8.6C719 5.50721 716.571 3 713.575 3L693.425 3C690.429 3 688 5.50721 688 8.6V29.4C688 32.4928 690.429 35 693.425 35Z" fill="url(#paint0_radial)"/>
<path id="Vector_21" d="M709.312 31H697.688C696.146 31 694.667 30.3679 693.577 29.2426C692.487 28.1174 691.875 26.5913 691.875 25V13C691.875 11.4087 692.487 9.88258 693.577 8.75736C694.667 7.63214 696.146 7 697.688 7H709.312C710.854 7 712.333 7.63214 713.423 8.75736C714.513 9.88258 715.125 11.4087 715.125 13V25C715.125 26.5913 714.513 28.1174 713.423 29.2426C712.333 30.3679 710.854 31 709.312 31V31ZM697.688 9.4C696.763 9.40132 695.877 9.78103 695.223 10.4559C694.569 11.1307 694.201 12.0456 694.2 13V25C694.201 25.9544 694.569 26.8693 695.223 27.5441C695.877 28.219 696.763 28.5987 697.688 28.6H709.312C710.237 28.5987 711.123 28.219 711.777 27.5441C712.431 26.8693 712.799 25.9544 712.8 25V13C712.799 12.0456 712.431 11.1307 711.777 10.4559C711.123 9.78103 710.237 9.40132 709.312 9.4H697.688Z" fill="white"/>
<path id="Vector_22" d="M703.5 25.8C702.197 25.8 700.923 25.4012 699.84 24.654C698.757 23.9068 697.913 22.8448 697.414 21.6023C696.915 20.3597 696.785 18.9925 697.039 17.6734C697.293 16.3543 697.921 15.1427 698.842 14.1917C699.763 13.2407 700.937 12.5931 702.215 12.3307C703.493 12.0683 704.817 12.203 706.021 12.7176C707.225 13.2323 708.253 14.1039 708.977 15.2221C709.701 16.3404 710.087 17.6551 710.087 19C710.086 20.8031 709.392 22.5319 708.157 23.8069C706.922 25.0818 705.247 25.7987 703.5 25.8V25.8ZM703.5 14.6C702.657 14.6 701.833 14.8581 701.132 15.3415C700.431 15.825 699.885 16.5122 699.562 17.3162C699.239 18.1202 699.155 19.0049 699.319 19.8584C699.484 20.7119 699.89 21.4959 700.486 22.1113C701.082 22.7266 701.842 23.1457 702.668 23.3155C703.495 23.4852 704.352 23.3981 705.131 23.0651C705.91 22.7321 706.576 22.1681 707.044 21.4445C707.512 20.7209 707.762 19.8703 707.762 19C707.761 17.8335 707.312 16.7151 706.513 15.8902C705.714 15.0653 704.63 14.6013 703.5 14.6V14.6Z" fill="white"/>
<path id="Vector_23" d="M710.088 13.8C710.73 13.8 711.25 13.2627 711.25 12.6C711.25 11.9373 710.73 11.4 710.088 11.4C709.445 11.4 708.925 11.9373 708.925 12.6C708.925 13.2627 709.445 13.8 710.088 13.8Z" fill="white"/>
</g>
</g>
<g id="vimeoIcon">
<g id="Layer 2">
<g id="Layer 1">
<path id="Vector_24" d="M620.593 448H602.407C598.316 448 595 451.216 595 455.183V472.817C595 476.784 598.316 480 602.407 480H620.593C624.684 480 628 476.784 628 472.817V455.183C628 451.216 624.684 448 620.593 448Z" fill="#23B6EA"/>
<path id="Vector_25" d="M619.976 460.193C619.827 463.274 614.02 471.099 610.66 471.099C609.669 471.099 608.835 470.216 608.157 468.45C606.853 463.795 606.271 460.935 605.15 460.935C604.671 461.129 604.224 461.39 603.824 461.711L603.024 460.714C605.15 458.907 606.865 457.2 608.008 457.1C609.319 456.945 610.126 457.813 610.431 459.705C610.82 462.099 611.391 465.967 612.374 465.967C613.14 465.967 615.015 462.964 615.106 461.877C615.278 460.326 613.963 460.237 612.706 460.769C613.544 458.124 615.144 456.823 617.507 456.867C619.252 456.919 620.075 458.027 619.976 460.193V460.193Z" fill="white"/>
</g>
</g>
</g>
<g id="gmailIcon">
<g id="Group">
<path id="Vector_26" d="M736.205 570.804L734.035 591H707.965L706.217 571.195L721 578.865L736.205 570.804Z" fill="#F2F2F2"/>
<path id="Vector_27" d="M735.469 567L721 579.594L706.531 567H721H735.469Z" fill="#F2F2F2"/>
</g>
<path id="Vector_28" d="M707.579 573.142V591H705.447C704.648 591 704 590.347 704 589.541V570.512L706.338 570.576L707.579 573.142Z" fill="#F14336"/>
<path id="Vector_29" d="M738 570.692V589.554C738 590.352 737.352 591 736.552 591H734.421V573.299L735.601 570.512L738 570.692Z" fill="#D32E2A"/>
<path id="Vector_30" d="M738 568.487V570.14L734.035 572.822L721 581.634L707.965 572.822L704 570.14V568.487C704 567.666 704.718 567 705.603 567H706.531L721 576.782L735.469 567H736.396C737.282 567 738 567.666 738 568.487Z" fill="#F14336"/>
<path id="Vector_31" d="M712.351 571.098L708.772 570.6V568.756L712.351 571.098Z" fill="#D32E2A"/>
</g>
<defs>
<radialGradient id="paint0_radial" cx="0" cy="0" r="1" gradientUnits="userSpaceOnUse" gradientTransform="translate(687.376 34.35) rotate(180) scale(71.5882 73.8975)">
<stop stop-color="#F9ED32"/>
<stop offset="0.36" stop-color="#EE2A7B"/>
<stop offset="0.44" stop-color="#D22A8A"/>
<stop offset="0.6" stop-color="#8B2AB2"/>
<stop offset="0.83" stop-color="#1B2AF0"/>
<stop offset="0.88" stop-color="#002AFF"/>
</radialGradient>
</defs>
</svg>
