<svg width="889" height="975" viewBox="0 0 889 975" fill="none" xmlns="http://www.w3.org/2000/svg">
<g id="facebookIcon">
<path id="Vector" d="M16 2C11.7565 2 7.68687 3.68571 4.68629 6.68629C1.68571 9.68687 0 13.7565 0 18C0 22.2435 1.68571 26.3131 4.68629 29.3137C7.68687 32.3143 11.7565 34 16 34C20.2435 34 24.3131 32.3143 27.3137 29.3137C30.3143 26.3131 32 22.2435 32 18C32 13.7565 30.3143 9.68687 27.3137 6.68629C24.3131 3.68571 20.2435 2 16 2Z" fill="#3F51B5"/>
<path id="Vector_2" d="M20.0899 18H17.5238V27.4815H13.7143V18H11.4286V14.8395H13.7143V12.9353C13.7158 10.1636 14.8259 8.51852 17.9748 8.51852H20.5714V11.679H18.8289C17.603 11.679 17.5238 12.1531 17.5238 13.0404V14.8395H20.5714L20.0899 18Z" fill="white"/>
</g>
<g id="twitterIcon">
<path id="Vector_3" d="M616 0C611.226 0 606.648 1.84374 603.272 5.12563C599.896 8.40752 598 12.8587 598 17.5C598 22.1413 599.896 26.5925 603.272 29.8744C606.648 33.1563 611.226 35 616 35C620.774 35 625.352 33.1563 628.728 29.8744C632.104 26.5925 634 22.1413 634 17.5C634 12.8587 632.104 8.40752 628.728 5.12563C625.352 1.84374 620.774 0 616 0Z" fill="#03A9F4"/>
<path id="Vector_4" d="M626.8 11.6744C626.006 12.0156 625.001 12.3358 624.1 12.4423C625.016 11.9152 626.47 10.8175 626.8 9.82455C625.944 10.3123 624.396 10.8333 623.386 11.0217C622.58 10.1928 621.43 9.82455 620.155 9.82455C617.707 9.82455 616 11.8358 616 14.1874V15.9326C612.4 15.9326 608.89 13.2738 606.706 10.6971C606.321 11.3263 606.105 12.0627 606.105 12.8411C606.105 14.4283 607.609 16.039 608.8 16.8052C608.074 16.7833 606.698 16.2458 606.1 15.9326C606.1 15.9465 606.1 15.964 606.1 15.9823C606.1 18.0477 607.595 19.4499 609.621 19.8409C609.251 19.9395 608.8 20.2955 607.065 20.2955C607.628 21.9839 610.46 22.8765 612.4 22.9132C610.883 24.0537 608.177 24.6583 606.1 24.6583C605.741 24.6583 605.546 24.6775 605.2 24.6383C607.16 25.8424 609.898 26.4035 612.4 26.4035C620.551 26.4035 625 20.367 625 14.7372C625 14.5522 624.994 13.9326 624.984 13.7511C625.855 13.1561 626.208 12.533 626.8 11.6744Z" fill="white"/>
</g>
<g id="linkedinIcon">
<path id="Vector_5" d="M315 3C310.491 3 306.167 4.84374 302.979 8.12563C299.791 11.4075 298 15.8587 298 20.5C298 25.1413 299.791 29.5925 302.979 32.8744C306.167 36.1563 310.491 38 315 38C319.509 38 323.833 36.1563 327.021 32.8744C330.209 29.5925 332 25.1413 332 20.5C332 15.8587 330.209 11.4075 327.021 8.12563C323.833 4.84374 319.509 3 315 3Z" fill="#0288D1"/>
<path id="Vector_6" d="M306.351 16.2456H309.759V29.4035H306.351V16.2456ZM308.045 14.4912H308.026C307.009 14.4912 306.351 13.7105 306.351 12.736C306.351 11.7403 307.029 10.9825 308.065 10.9825C309.102 10.9825 309.74 11.7403 309.759 12.736C309.759 13.7105 309.102 14.4912 308.045 14.4912ZM324.246 21.0702C324.246 18.4053 322.148 16.2456 319.559 16.2456C317.972 16.2456 316.572 17.0596 315.724 18.3018V16.2456H312.316V29.4035H315.724V22.386C315.724 20.9325 316.869 19.7544 318.281 19.7544C319.693 19.7544 320.837 20.9325 320.837 22.386V29.4035H324.246C324.246 29.4035 324.246 21.4395 324.246 21.0702Z" fill="white"/>
</g>
<g id="mediumIcon">
<path id="Vector_7" d="M466 149H498V183H466V149Z" fill="#37474F"/>
<path id="Vector_8" d="M491.091 158.805L492.764 157.053V156.698H486.775L482.335 167.845L477.657 156.698H471.106V157.053L472.806 159.19C472.874 159.275 472.911 159.382 472.911 159.493V171.108C472.911 171.281 472.854 171.448 472.751 171.582L470.655 174.305V174.66H476.971V174.306L474.873 171.559C474.771 171.424 474.715 171.258 474.715 171.086V161.165L480.459 174.66H481.596L486.447 162.449V171.983C486.447 172.109 486.399 172.229 486.315 172.317L484.416 174.306V174.66H492.764V174.306L491.091 172.553C491.007 172.465 490.959 172.345 490.959 172.219V159.139C490.959 159.013 491.007 158.893 491.091 158.805Z" fill="white"/>
</g>
<g id="youtubeIcon">
<path id="Vector_9" d="M39.1696 967.07C38.8005 969.1 37.2319 970.647 35.2943 970.937C32.2494 971.42 27.1746 972 21.4539 972C15.8254 972 10.7506 971.42 7.61347 970.937C5.67581 970.647 4.10723 969.1 3.73815 967.07C3.36908 964.847 3 961.56 3 957.5C3 953.44 3.36908 950.153 3.73815 947.93C4.10723 945.9 5.67581 944.353 7.61347 944.063C10.6584 943.58 15.7332 943 21.4539 943C27.1746 943 32.1571 943.58 35.2943 944.063C37.2319 944.353 38.8005 945.9 39.1696 947.93C39.5387 950.153 40 953.44 40 957.5C39.9077 961.56 39.5387 964.847 39.1696 967.07Z" fill="#FF3D00"/>
<path id="Vector_10" d="M17.5357 964.267V950.733L28.7678 957.5L17.5357 964.267Z" fill="white"/>
</g>
<g id="behanceIcon">
<path id="Vector_11" d="M163 759.444C163 757.542 164.492 756 166.333 756H189.667C191.507 756 193 757.542 193 759.444V783.556C193 785.458 191.507 787 189.667 787H166.333C164.492 787 163 785.458 163 783.556V759.444Z" fill="#2196F3"/>
<path id="Vector_12" d="M180.5 765.582H186.333V767.273H180.5V765.582ZM175.927 771.016C176.414 770.775 177.513 770.226 177.513 768.601C177.513 765.543 174.219 765.583 173.61 765.583H168V777.418H173.854C174.342 777.417 178 777.278 178 774.035C178 771.943 176.658 771.258 175.927 771.016ZM170.5 767.634H172.94C173.183 767.634 174.769 767.722 174.769 768.963C174.769 770.204 173.55 770.412 173.184 770.412H170.5V767.634ZM173.28 775.364H170.474V772.104H173.28C173.889 772.104 175.231 772.304 175.231 773.795C175.231 775.284 173.523 775.364 173.28 775.364ZM185.032 775.215C184.644 775.459 184.257 775.584 183.741 775.584C181.802 775.584 181.417 773.926 181.417 773.191H188C188 772.457 188 771.914 187.871 771.301C187.741 770.688 186.858 768.118 183.612 768.118C179.074 768.118 178.833 772.157 178.833 772.768C178.833 773.379 178.963 774.114 179.222 774.603C179.48 775.215 179.738 775.705 180.126 776.071C180.512 776.438 181.028 776.803 181.545 777.049C182.19 777.295 182.836 777.417 183.482 777.417C184.513 777.417 185.418 777.174 186.193 776.684C186.968 776.194 187.484 775.459 187.871 774.48H185.677C185.548 774.726 185.418 774.969 185.032 775.215ZM183.612 769.832C184.877 769.832 185.418 771.177 185.547 771.788H181.417C181.417 771.667 181.726 769.832 183.612 769.832Z" fill="white"/>
</g>
<g id="pinterestIcon">
<path id="Vector_13" d="M171.5 149C167.124 149 162.927 150.844 159.833 154.126C156.738 157.408 155 161.859 155 166.5C155 171.141 156.738 175.592 159.833 178.874C162.927 182.156 167.124 184 171.5 184C175.876 184 180.073 182.156 183.167 178.874C186.262 175.592 188 171.141 188 166.5C188 161.859 186.262 157.408 183.167 154.126C180.073 150.844 175.876 149 171.5 149Z" fill="#D32F2F"/>
<path id="Vector_14" d="M167.748 169.279C167.748 166.384 167.273 165.381 167.273 164.245C167.273 161.663 169.074 161.452 169.836 161.452C170.922 161.452 172.345 162.209 172.345 163.626C172.345 165.688 170.655 165.949 170.655 165.949C170.655 165.949 170.655 166.67 170.655 167.939C170.655 169.279 170.969 171.018 173.295 171.018C177.027 171.018 177.418 165.668 177.418 164.202C177.418 162.177 176.158 157.973 171.68 157.973C165.707 157.973 164.736 163.463 164.736 164.93C164.736 165.558 164.848 166.776 164.964 167.25C166.744 167.702 166.329 169.315 165.846 169.768C165.146 170.434 162.2 170.563 162.2 164.343C162.2 158.419 167.334 155.364 171.84 155.364C176.128 155.364 180.8 158.409 180.8 164.275C180.8 169.508 177.142 173.63 173.299 173.63C170.993 173.63 169.769 171.675 169.769 171.675C169.769 175.367 166.846 180.657 166.427 181.455C166.427 181.455 167.748 174.624 167.748 169.279Z" fill="white"/>
</g>
<g id="dribbleIcon">
<path id="Vector_15" d="M766 178.278C766 180.886 763.949 183 761.417 183H737.583C735.052 183 733 180.886 733 178.278V153.722C733 151.114 735.052 149 737.583 149H761.417C763.949 149 766 151.114 766 153.722V178.278Z" fill="#FF4081"/>
<path id="Vector_16" d="M758.044 168.315C757.381 168.105 756.663 168.481 756.454 169.165C755.677 171.691 754.27 174.315 753.632 174.459C753.154 174.459 752.467 174.05 751.786 173.09C753.364 169.675 754.191 165.387 754.191 162.524C754.191 154.528 752.188 152.849 750.506 152.849C746.964 152.849 746.923 162.269 746.923 162.364C746.923 163.472 746.963 164.501 747.037 165.459C746.549 165.279 745.988 165.156 745.369 165.156C741.729 165.156 740.071 168.776 740.071 172.138C740.071 175.307 741.836 178.509 745.772 178.509C747.631 178.509 749.199 177.282 750.463 175.448C751.583 176.622 752.756 177.06 753.631 177.06C756.387 177.06 758.212 172.087 758.87 169.946C759.08 169.262 758.709 168.532 758.044 168.315ZM745.774 175.909C742.916 175.909 742.606 173.272 742.606 172.137C742.606 171.958 742.638 167.755 745.37 167.755C746.449 167.755 747.277 168.596 747.277 168.596C747.338 168.663 747.406 168.72 747.477 168.771C747.83 170.58 748.329 172.027 748.906 173.173C747.96 174.825 746.863 175.909 745.774 175.909ZM750.35 169.886C749.823 168.051 749.458 165.589 749.458 162.364C749.458 159.393 750.086 156.597 750.607 155.642C751.007 156.254 751.659 158.161 751.659 162.524C751.659 164.839 751.15 167.529 750.35 169.886Z" fill="white"/>
</g>
<g id="githubIcon">
<path id="Vector_17" d="M332 943C322.607 943 315 950.346 315 959.406C315 966.656 319.87 972.805 326.624 974.972C327.474 975.126 327.785 974.619 327.785 974.183C327.785 973.793 327.771 972.761 327.764 971.394C323.035 972.384 322.038 969.193 322.038 969.193C321.264 967.299 320.147 966.793 320.147 966.793C318.607 965.776 320.266 965.796 320.266 965.796C321.973 965.911 322.87 967.486 322.87 967.486C324.385 969.995 326.849 969.27 327.821 968.851C327.974 967.79 328.412 967.067 328.898 966.656C325.122 966.246 321.154 964.835 321.154 958.549C321.154 956.758 321.813 955.295 322.904 954.147C322.712 953.732 322.139 952.064 323.052 949.804C323.052 949.804 324.476 949.364 327.727 951.486C329.087 951.121 330.532 950.941 331.977 950.932C333.422 950.941 334.867 951.121 336.227 951.486C339.457 949.364 340.881 949.804 340.881 949.804C341.795 952.064 341.221 953.732 341.051 954.147C342.135 955.295 342.794 956.758 342.794 958.549C342.794 964.852 338.82 966.239 335.037 966.643C335.632 967.135 336.185 968.141 336.185 969.678C336.185 971.874 336.164 973.637 336.164 974.17C336.164 974.601 336.461 975.114 337.332 974.95C344.134 972.798 349 966.645 349 959.406C349 950.346 341.388 943 332 943Z" fill="black"/>
</g>
<g id="telegramIcon">
<path id="Vector_18" d="M651 972C660.389 972 668 964.389 668 955C668 945.611 660.389 938 651 938C641.611 938 634 945.611 634 955C634 964.389 641.611 972 651 972Z" fill="#139BD0"/>
<path id="Vector_19" fill-rule="evenodd" clip-rule="evenodd" d="M651.557 959.063C650.902 959.7 650.253 960.327 649.61 960.959C649.385 961.181 649.133 961.303 648.81 961.286C648.59 961.275 648.467 961.178 648.399 960.969C647.906 959.44 647.407 957.915 646.917 956.385C646.869 956.236 646.799 956.164 646.648 956.117C645.488 955.763 644.33 955.4 643.173 955.033C642.995 954.976 642.816 954.902 642.662 954.798C642.424 954.637 642.39 954.374 642.603 954.185C642.8 954.011 643.035 953.859 643.279 953.762C644.697 953.2 646.123 952.656 647.547 952.107C651.161 950.712 654.774 949.318 658.388 947.923C659.075 947.658 659.603 948.032 659.532 948.775C659.486 949.25 659.363 949.718 659.264 950.187C658.479 953.892 657.693 957.597 656.905 961.301C656.717 962.18 656.1 962.41 655.376 961.876C654.164 960.983 652.952 960.086 651.741 959.191C651.683 959.15 651.623 959.109 651.557 959.063ZM648.836 960.188C648.849 960.184 648.863 960.18 648.877 960.177C648.884 960.142 648.895 960.108 648.898 960.074C648.976 959.234 649.058 958.394 649.126 957.553C649.141 957.366 649.205 957.233 649.346 957.107C650.464 956.107 651.574 955.102 652.687 954.098C653.919 952.987 655.151 951.877 656.379 950.762C656.455 950.693 656.486 950.576 656.539 950.481C656.423 950.468 656.299 950.422 656.194 950.449C656.051 950.486 655.915 950.569 655.788 950.65C653.069 952.362 650.352 954.077 647.631 955.787C647.478 955.883 647.449 955.965 647.507 956.134C647.708 956.71 647.891 957.292 648.08 957.872C648.332 958.644 648.584 959.416 648.836 960.188Z" fill="white"/>
</g>
<g id="spotifyIcon">
<g id="spotifyIcon_2">
<g id="x34  stroke">
<g id="Spotify 1">
<path id="Spotify" fill-rule="evenodd" clip-rule="evenodd" d="M482 749C473.2 749 466 756.2 466 765C466 773.8 473.2 781 482 781C490.8 781 498 773.8 498 765C498 756.2 490.88 749 482 749ZM489.36 772.12C489.04 772.6 488.48 772.76 488 772.44C484.24 770.12 479.52 769.64 473.92 770.92C473.36 771.08 472.88 770.68 472.72 770.2C472.56 769.64 472.96 769.16 473.44 769C479.52 767.64 484.8 768.2 488.96 770.76C489.52 771 489.6 771.64 489.36 772.12ZM491.28 767.72C490.88 768.28 490.16 768.52 489.6 768.12C485.28 765.48 478.72 764.68 473.68 766.28C473.04 766.44 472.32 766.12 472.16 765.48C472 764.84 472.32 764.12 472.96 763.96C478.8 762.2 486 763.08 490.96 766.12C491.44 766.36 491.68 767.16 491.28 767.72ZM491.44 763.24C486.32 760.2 477.76 759.88 472.88 761.4C472.08 761.64 471.28 761.16 471.04 760.44C470.8 759.64 471.28 758.84 472 758.6C477.68 756.92 487.04 757.24 492.96 760.76C493.68 761.16 493.92 762.12 493.52 762.84C493.12 763.4 492.16 763.64 491.44 763.24Z" fill="#10BC4C"/>
</g>
</g>
</g>
</g>
<g id="instagramIcon">
<g id="3-instagram">
<path id="Vector_20" d="M839.425 34H859.575C862.571 34 865 31.4928 865 28.4V7.6C865 4.50721 862.571 2 859.575 2L839.425 2C836.429 2 834 4.50721 834 7.6V28.4C834 31.4928 836.429 34 839.425 34Z" fill="url(#paint0_radial)"/>
<path id="Vector_21" d="M855.312 30H843.688C842.146 30 840.667 29.3679 839.577 28.2426C838.487 27.1174 837.875 25.5913 837.875 24V12C837.875 10.4087 838.487 8.88258 839.577 7.75736C840.667 6.63214 842.146 6 843.688 6H855.312C856.854 6 858.333 6.63214 859.423 7.75736C860.513 8.88258 861.125 10.4087 861.125 12V24C861.125 25.5913 860.513 27.1174 859.423 28.2426C858.333 29.3679 856.854 30 855.312 30ZM843.688 8.4C842.763 8.40132 841.877 8.78103 841.223 9.45588C840.569 10.1307 840.201 11.0456 840.2 12V24C840.201 24.9544 840.569 25.8693 841.223 26.5441C841.877 27.219 842.763 27.5987 843.688 27.6H855.312C856.237 27.5987 857.123 27.219 857.777 26.5441C858.431 25.8693 858.799 24.9544 858.8 24V12C858.799 11.0456 858.431 10.1307 857.777 9.45588C857.123 8.78103 856.237 8.40132 855.312 8.4H843.688Z" fill="white"/>
<path id="Vector_22" d="M849.5 24.8C848.197 24.8 846.923 24.4012 845.84 23.654C844.757 22.9068 843.913 21.8448 843.414 20.6023C842.915 19.3597 842.785 17.9925 843.039 16.6734C843.293 15.3543 843.921 14.1427 844.842 13.1917C845.763 12.2407 846.937 11.5931 848.215 11.3307C849.493 11.0683 850.817 11.203 852.021 11.7176C853.225 12.2323 854.253 13.1039 854.977 14.2221C855.701 15.3404 856.087 16.6551 856.087 18C856.086 19.8031 855.392 21.5319 854.157 22.8069C852.922 24.0818 851.247 24.7987 849.5 24.8ZM849.5 13.6C848.657 13.6 847.833 13.8581 847.132 14.3415C846.431 14.825 845.885 15.5122 845.562 16.3162C845.239 17.1202 845.155 18.0049 845.319 18.8584C845.484 19.7119 845.89 20.4959 846.486 21.1113C847.082 21.7266 847.842 22.1457 848.668 22.3155C849.495 22.4852 850.352 22.3981 851.131 22.0651C851.91 21.7321 852.576 21.1681 853.044 20.4445C853.512 19.7209 853.762 18.8703 853.762 18C853.761 16.8335 853.312 15.7151 852.513 14.8902C851.714 14.0653 850.63 13.6013 849.5 13.6Z" fill="white"/>
<path id="Vector_23" d="M856.088 12.8C856.73 12.8 857.25 12.2627 857.25 11.6C857.25 10.9373 856.73 10.4 856.088 10.4C855.445 10.4 854.925 10.9373 854.925 11.6C854.925 12.2627 855.445 12.8 856.088 12.8Z" fill="white"/>
</g>
</g>
<g id="vimeoIcon">
<g id="Layer 2">
<g id="Layer 1">
<path id="Vector_24" d="M758.593 749H740.407C736.316 749 733 752.216 733 756.183V773.817C733 777.784 736.316 781 740.407 781H758.593C762.684 781 766 777.784 766 773.817V756.183C766 752.216 762.684 749 758.593 749Z" fill="#23B6EA"/>
<path id="Vector_25" d="M757.976 761.193C757.827 764.274 752.02 772.099 748.66 772.099C747.669 772.099 746.835 771.216 746.157 769.45C744.853 764.795 744.271 761.935 743.15 761.935C742.671 762.129 742.224 762.39 741.824 762.711L741.024 761.714C743.15 759.907 744.865 758.2 746.008 758.1C747.319 757.945 748.126 758.813 748.431 760.705C748.82 763.099 749.391 766.967 750.374 766.967C751.14 766.967 753.015 763.964 753.106 762.877C753.278 761.326 751.963 761.237 750.706 761.769C751.544 759.124 753.144 757.823 755.507 757.867C757.252 757.919 758.075 759.027 757.976 761.193Z" fill="white"/>
</g>
</g>
</g>
<g id="gmailIcon">
<g id="Group">
<path id="Vector_26" d="M887.205 946.804L885.035 967H858.965L857.217 947.195L872 954.865L887.205 946.804Z" fill="#F2F2F2"/>
<path id="Vector_27" d="M886.469 943L872 955.594L857.531 943H872H886.469Z" fill="#F2F2F2"/>
</g>
<path id="Vector_28" d="M858.579 949.142V967H856.447C855.648 967 855 966.347 855 965.541V946.512L857.338 946.576L858.579 949.142Z" fill="#F14336"/>
<path id="Vector_29" d="M889 946.692V965.554C889 966.352 888.352 967 887.552 967H885.421V949.299L886.601 946.512L889 946.692Z" fill="#D32E2A"/>
<path id="Vector_30" d="M889 944.487V946.14L885.035 948.822L872 957.634L858.965 948.822L855 946.14V944.487C855 943.666 855.718 943 856.603 943H857.531L872 952.782L886.469 943H887.396C888.282 943 889 943.666 889 944.487Z" fill="#F14336"/>
<path id="Vector_31" d="M863.351 947.098L859.772 946.6V944.756L863.351 947.098Z" fill="#D32E2A"/>
</g>
<defs>
<radialGradient id="paint0_radial" cx="0" cy="0" r="1" gradientUnits="userSpaceOnUse" gradientTransform="translate(833.376 33.35) rotate(180) scale(71.5882 73.8975)">
<stop stop-color="#F9ED32"/>
<stop offset="0.36" stop-color="#EE2A7B"/>
<stop offset="0.44" stop-color="#D22A8A"/>
<stop offset="0.6" stop-color="#8B2AB2"/>
<stop offset="0.83" stop-color="#1B2AF0"/>
<stop offset="0.88" stop-color="#002AFF"/>
</radialGradient>
</defs>
</svg>
